<?xml version="1.0" encoding="UTF-8"?>
<!DOCTYPE svg PUBLIC "-//W3C//DTD SVG 1.1//EN" "http://www.w3.org/Graphics/SVG/1.1/DTD/svg11.dtd">
<!-- Creator: CorelDRAW X7 -->
<svg xmlns="http://www.w3.org/2000/svg" xml:space="preserve" width="3.5629mm" height="1.6635mm" version="1.1" style="shape-rendering:geometricPrecision; text-rendering:geometricPrecision; image-rendering:optimizeQuality; fill-rule:evenodd; clip-rule:evenodd"
viewBox="0 0 1417 662"
 xmlns:xlink="http://www.w3.org/1999/xlink">
 <defs>
  <style type="text/css">
   <![CDATA[
    .str0 {stroke:#E31E24;stroke-width:79.5468}
    .fil0 {fill:#E31E24}
    .fil1 {fill:#FEFEFE;fill-rule:nonzero}
   ]]>
  </style>
 </defs>
 <g id="Слой_x0020_1">
  <metadata id="CorelCorpID_0Corel-Layer"/>
  <rect class="fil0 str0" x="40" y="40" width="1338" height="582"/>
  <path class="fil1" d="M222 256c19,0 35,5 50,13 15,8 27,20 36,36 9,16 14,35 14,57 0,25 -5,46 -15,63 -10,17 -25,30 -44,39 -20,8 -45,13 -75,13 -19,0 -36,-2 -52,-5 -16,-3 -30,-7 -42,-13l0 -73c12,5 26,10 42,14 16,5 31,7 45,7 11,0 20,-2 28,-5 7,-3 13,-8 17,-14 4,-6 6,-14 6,-23 0,-12 -4,-22 -13,-29 -10,-7 -23,-11 -41,-11 -9,0 -17,1 -25,3 -8,1 -15,3 -21,5l-32 -16 12 -174 188 0 0 74 -112 0 -4 43c4,0 9,-1 14,-2 5,-1 13,-2 24,-2zm375 52c0,26 -2,50 -6,71 -5,21 -11,38 -21,53 -9,14 -21,26 -36,33 -15,8 -34,12 -56,12 -27,0 -50,-7 -67,-20 -18,-14 -31,-33 -39,-58 -9,-26 -13,-56 -13,-91 0,-36 4,-66 12,-92 7,-25 20,-45 37,-58 17,-14 41,-21 70,-21 27,0 50,7 67,21 18,13 31,33 39,58 9,25 13,56 13,92zm-149 0c0,21 0,39 2,54 2,15 5,26 9,33 4,7 11,11 19,11 8,0 15,-4 19,-11 4,-7 7,-18 9,-33 2,-14 2,-33 2,-54 0,-22 0,-40 -2,-55 -2,-15 -5,-26 -9,-33 -4,-8 -11,-11 -19,-11 -8,0 -15,3 -19,11 -4,7 -7,18 -9,33 -2,15 -2,33 -2,55zm419 0c0,26 -2,50 -6,71 -4,21 -11,38 -20,53 -10,14 -22,26 -37,33 -15,8 -34,12 -56,12 -27,0 -50,-7 -67,-20 -18,-14 -31,-33 -39,-58 -8,-26 -13,-56 -13,-91 0,-36 4,-66 12,-92 7,-25 20,-45 37,-58 18,-14 41,-21 70,-21 28,0 50,7 68,21 17,13 30,33 38,58 9,25 13,56 13,92zm-149 0c0,21 1,39 2,54 2,15 5,26 9,33 5,7 11,11 19,11 8,0 15,-4 19,-11 4,-7 7,-18 9,-33 2,-14 3,-33 3,-54 0,-22 -1,-40 -3,-55 -2,-15 -5,-26 -9,-33 -4,-8 -11,-11 -19,-11 -8,0 -14,3 -19,11 -4,7 -7,18 -9,33 -1,15 -2,33 -2,55zm327 44l0 32 -48 0 0 88 -42 0 0 -120 90 0zm94 -2c14,0 24,5 32,16 7,11 11,26 11,46 0,13 -2,25 -6,34 -3,9 -9,16 -15,21 -7,5 -15,7 -23,7 -6,0 -11,-1 -15,-2 -4,-2 -7,-3 -10,-6 -2,-2 -4,-4 -6,-6l-1 0c0,3 0,6 0,9 1,3 1,7 1,11l0 44 -42 0 0 -172 34 0 6 16 2 0c2,-3 4,-6 7,-9 3,-3 6,-5 11,-6 4,-2 9,-3 14,-3zm-16 33c-4,0 -7,1 -9,3 -3,2 -4,5 -5,8 -1,4 -2,9 -2,14l0 4c0,6 0,11 1,15 1,4 3,8 5,10 3,2 6,3 11,3 3,0 6,-1 8,-3 3,-2 5,-5 6,-9 1,-4 2,-10 2,-17 0,-10 -2,-17 -5,-21 -2,-5 -6,-7 -12,-7zm125 -31l0 43 33 0 0 -43 42 0 0 120 -42 0 0 -46 -33 0 0 46 -42 0 0 -120 42 0z"/>
 </g>
</svg>
