<?xml version="1.0" encoding="UTF-8"?>
<!DOCTYPE svg PUBLIC "-//W3C//DTD SVG 1.1//EN" "http://www.w3.org/Graphics/SVG/1.1/DTD/svg11.dtd">
<!-- Creator: CorelDRAW X7 -->
<svg xmlns="http://www.w3.org/2000/svg" xml:space="preserve" width="13.6035mm" height="0.9579mm" version="1.1" style="shape-rendering:geometricPrecision; text-rendering:geometricPrecision; image-rendering:optimizeQuality; fill-rule:evenodd; clip-rule:evenodd"
viewBox="0 0 2007 141"
 xmlns:xlink="http://www.w3.org/1999/xlink">
 <defs>
  <style type="text/css">
   <![CDATA[
    .fil0 {fill:#FEFEFE;fill-rule:nonzero}
   ]]>
  </style>
 </defs>
 <g id="Слой_x0020_1">
  <metadata id="CorelCorpID_0Corel-Layer"/>
  <path class="fil0" d="M46 108l-21 -77 -1 0c0,2 0,5 1,9 0,3 0,7 0,11 0,3 1,7 1,11l0 46 -26 0 0 -106 38 0 23 75 0 0 22 -75 38 0 0 106 -26 0 0 -47c0,-3 0,-6 0,-10 0,-4 0,-8 0,-11 1,-4 1,-6 1,-8l-1 0 -21 76 -28 0zm208 -23l0 56 -28 0 0 -33 -82 0 0 -106 29 0 0 83 30 0 0 -83 29 0 0 83 22 0zm8 -20l29 -35 20 11 -20 25 20 26 -20 10 -29 -35 0 -2zm42 0l28 -35 21 11 -20 25 20 26 -21 10 -28 -35 0 -2zm166 -10c0,8 -1,16 -3,22 -2,7 -5,13 -9,18 -5,5 -10,8 -17,11 -6,3 -14,4 -23,4 -9,0 -17,-1 -23,-4 -7,-3 -12,-6 -16,-11 -5,-5 -8,-11 -10,-18 -2,-6 -3,-14 -3,-22 0,-11 2,-21 6,-29 3,-8 9,-15 17,-19 7,-5 17,-7 29,-7 12,0 22,2 30,7 7,4 13,11 16,19 4,8 6,18 6,29zm-74 0c0,6 1,12 3,16 1,5 3,9 7,11 3,3 7,4 12,4 5,0 9,-1 13,-4 3,-2 5,-6 6,-11 2,-4 2,-10 2,-16 0,-10 -1,-17 -4,-23 -4,-6 -9,-8 -17,-8 -5,0 -9,1 -13,3 -3,3 -5,7 -6,11 -2,5 -3,10 -3,17zm186 53l-32 0 -32 -54 0 54 -29 0 0 -106 29 0 0 51 30 -51 32 0 -33 51 35 55zm58 -84c-3,0 -6,0 -9,2 -2,1 -5,3 -7,6 -1,3 -3,6 -4,10 -1,4 -1,8 -1,13 0,7 0,13 2,17 2,5 4,8 8,11 3,2 8,3 13,3 5,0 9,0 14,-2 4,-1 9,-3 13,-4l0 24c-5,2 -9,4 -14,4 -5,1 -11,2 -16,2 -12,0 -21,-2 -28,-7 -8,-5 -13,-11 -17,-19 -3,-8 -5,-18 -5,-29 0,-8 1,-15 3,-22 3,-7 6,-13 10,-17 5,-5 10,-9 17,-12 6,-3 13,-4 22,-4 5,0 10,1 16,2 6,1 11,3 17,6l-9 22c-4,-2 -8,-3 -12,-4 -4,-2 -8,-2 -13,-2zm119 -24l0 13c11,0 20,2 27,6 7,3 12,8 15,14 4,7 5,13 5,20 0,6 -1,11 -2,15 -2,5 -5,10 -8,13 -4,4 -9,7 -15,9 -6,2 -13,3 -22,3l0 17 -28 0 0 -17c-9,0 -16,-1 -22,-3 -6,-2 -11,-5 -15,-8 -3,-4 -6,-8 -8,-13 -1,-5 -2,-10 -2,-16 0,-5 1,-10 2,-15 2,-4 5,-9 8,-12 4,-4 9,-7 15,-10 6,-2 13,-3 22,-3l0 -13 28 0zm-28 35c-5,0 -9,1 -12,3 -3,1 -4,4 -5,6 -2,3 -2,6 -2,9 0,4 0,7 1,9 1,3 3,6 6,7 3,2 7,3 12,3l0 -37zm28 0l0 37c5,0 9,-1 12,-3 3,-1 5,-4 6,-7 1,-2 1,-5 1,-9 0,-3 0,-6 -1,-9 -2,-3 -4,-5 -6,-6 -3,-2 -7,-3 -12,-3zm164 20c0,8 -1,16 -3,22 -2,7 -5,13 -9,18 -4,5 -10,8 -16,11 -7,3 -15,4 -24,4 -9,0 -16,-1 -23,-4 -7,-3 -12,-6 -16,-11 -4,-5 -7,-11 -10,-18 -2,-6 -3,-14 -3,-22 0,-11 2,-21 6,-29 4,-8 9,-15 17,-19 8,-5 17,-7 29,-7 13,0 22,2 30,7 8,4 13,11 17,19 3,8 5,18 5,29zm-73 0c0,6 0,12 2,16 1,5 4,9 7,11 3,3 7,4 12,4 6,0 10,-1 13,-4 3,-2 5,-6 7,-11 1,-4 2,-10 2,-16 0,-10 -2,-17 -5,-23 -3,-6 -9,-8 -17,-8 -5,0 -9,1 -12,3 -3,3 -6,7 -7,11 -2,5 -2,10 -2,17zm129 -53c14,0 24,3 31,8 6,6 10,15 10,26 0,4 -1,9 -2,14 -2,4 -4,8 -7,11 -3,4 -8,7 -13,9 -5,2 -11,3 -19,3l-8 0 0 35 -29 0 0 -106 37 0zm-1 23l-7 0 0 24 6 0c2,0 5,0 7,-1 2,-1 4,-2 5,-4 1,-2 2,-5 2,-8 0,-3 -1,-6 -3,-8 -2,-2 -5,-3 -10,-3zm151 -23l0 83 15 0 0 56 -28 0 0 -33 -62 0 0 33 -28 0 0 -56 8 0c4,-6 7,-12 9,-18 3,-7 5,-14 7,-21 2,-7 4,-14 5,-21 2,-8 3,-16 3,-23l71 0zm-29 23l-19 0c0,5 -1,11 -2,16 -1,5 -2,10 -3,15 -2,5 -3,9 -5,14 -2,5 -4,10 -6,15l35 0 0 -60zm143 83l-21 -77 -1 0c0,2 0,5 0,9 1,3 1,7 1,11 0,3 0,7 0,11l0 46 -25 0 0 -106 38 0 22 75 1 0 22 -75 38 0 0 106 -26 0 0 -47c0,-3 0,-6 0,-10 0,-4 0,-8 0,-11 1,-4 1,-6 1,-8l-1 0 -21 76 -28 0zm161 0l-63 0 0 -106 63 0 0 23 -34 0 0 17 32 0 0 23 -32 0 0 20 34 0 0 23zm112 -106l0 83 14 0 0 56 -28 0 0 -33 -62 0 0 33 -28 0 0 -56 9 0c3,-6 6,-12 9,-18 3,-7 5,-14 7,-21 2,-7 4,-14 5,-21 1,-8 2,-16 3,-23l71 0zm-29 23l-19 0c-1,5 -1,11 -2,16 -1,5 -2,10 -4,15 -1,5 -3,9 -4,14 -2,5 -4,10 -7,15l36 0 0 -60zm58 83l0 -106 29 0 0 106 -29 0zm145 0l-33 0 -31 -54 0 54 -29 0 0 -106 29 0 0 51 30 -51 32 0 -33 51 35 55zm76 0l-5 -20 -35 0 -5 20 -32 0 35 -106 38 0 35 106 -31 0zm-11 -43l-5 -18c0,-2 -1,-4 -2,-8 -1,-3 -2,-7 -3,-11 -1,-3 -1,-6 -2,-9 0,3 -1,6 -2,9 0,4 -1,7 -2,11 -1,3 -2,6 -2,8l-5 18 23 0zm145 43l-29 0 0 -83 -21 0c0,4 0,9 -1,14 -1,5 -1,10 -2,15 -1,5 -1,10 -2,15 -1,5 -2,9 -2,13 -2,6 -4,11 -6,15 -3,4 -6,7 -10,10 -4,2 -10,3 -16,3 -3,0 -5,0 -6,-1 -2,0 -4,0 -6,-1l0 -22c2,0 3,1 4,1 1,0 2,0 3,0 2,0 3,0 5,-1 1,-1 2,-3 3,-6 1,-3 2,-8 3,-14 1,-2 1,-6 2,-10 1,-4 1,-9 2,-15 1,-5 2,-11 3,-18 0,-7 1,-14 2,-21l74 0 0 106zm107 -41l-28 35 -20 -10 20 -26 -20 -25 20 -11 28 35 0 2zm-41 0l-29 35 -20 -10 20 -26 -20 -25 20 -11 29 35 0 2z"/>
 </g>
</svg>
