<?xml version="1.0" encoding="UTF-8"?>
<!DOCTYPE svg PUBLIC "-//W3C//DTD SVG 1.1//EN" "http://www.w3.org/Graphics/SVG/1.1/DTD/svg11.dtd">
<!-- Creator: CorelDRAW X7 -->
<svg xmlns="http://www.w3.org/2000/svg" xml:space="preserve" width="9.5913mm" height="0.8362mm" version="1.1" style="shape-rendering:geometricPrecision; text-rendering:geometricPrecision; image-rendering:optimizeQuality; fill-rule:evenodd; clip-rule:evenodd"
viewBox="0 0 1778 155"
 xmlns:xlink="http://www.w3.org/1999/xlink">
 <defs>
  <style type="text/css">
   <![CDATA[
    .fil0 {fill:#FEFEFE;fill-rule:nonzero}
   ]]>
  </style>
 </defs>
 <g id="Слой_x0020_1">
  <metadata id="CorelCorpID_0Corel-Layer"/>
  <path class="fil0" d="M71 32l0 85 -13 0 0 -74 -45 0 0 74 -13 0 0 -85 71 0zm68 -2c10,0 19,4 25,11 6,8 9,19 9,33 0,10 -1,18 -4,25 -3,6 -7,11 -12,15 -5,3 -12,5 -19,5 -4,0 -8,-1 -12,-2 -3,-1 -6,-3 -8,-5 -3,-2 -5,-4 -6,-7l-1 0c0,2 0,5 0,8 0,2 1,5 1,7l0 35 -13 0 0 -123 10 0 2 12 1 0c1,-2 3,-5 6,-7 2,-2 5,-4 8,-5 4,-1 8,-2 13,-2zm-3 11c-6,0 -10,1 -14,4 -3,2 -6,5 -8,10 -1,4 -2,10 -2,17l0 2c0,8 0,14 2,19 2,5 4,8 8,11 3,3 8,4 15,4 5,0 9,-2 13,-4 3,-3 6,-7 8,-12 1,-5 2,-11 2,-18 0,-10 -2,-18 -6,-24 -4,-6 -10,-9 -18,-9zm58 67c0,-3 1,-6 3,-7 1,-2 4,-3 6,-3 3,0 5,1 7,3 2,1 2,4 2,7 0,4 0,6 -2,8 -2,2 -4,3 -7,3 -2,0 -5,-1 -6,-3 -2,-2 -3,-4 -3,-8zm173 9l-13 0 0 -53 -60 0 0 53 -13 0 0 -114 13 0 0 49 60 0 0 -49 13 0 0 114zm62 -87c7,0 14,2 19,5 5,3 9,8 12,14 2,5 4,12 4,20l0 8 -59 0c0,10 3,17 7,23 5,5 12,8 21,8 5,0 10,-1 14,-2 4,-1 8,-2 13,-4l0 11c-4,2 -9,3 -13,4 -4,1 -9,2 -15,2 -8,0 -15,-2 -21,-5 -6,-4 -11,-9 -14,-15 -4,-7 -5,-15 -5,-24 0,-9 1,-17 4,-24 3,-6 8,-12 13,-15 6,-4 12,-6 20,-6zm0 11c-7,0 -12,2 -17,7 -4,4 -6,10 -7,19l45 0c0,-6 -1,-10 -2,-14 -2,-4 -4,-7 -7,-9 -3,-2 -7,-3 -12,-3zm78 -11c7,0 12,1 17,3 5,2 8,4 11,7 2,4 4,8 4,13 0,5 -2,9 -5,12 -2,3 -6,5 -11,6l0 1c3,1 6,2 9,4 3,2 5,4 7,7 2,3 3,6 3,10 0,5 -2,10 -4,13 -3,4 -7,7 -12,9 -5,2 -12,4 -20,4 -4,0 -8,-1 -11,-1 -4,-1 -7,-1 -10,-2 -3,-1 -6,-2 -8,-3l0 -12c4,2 8,4 13,5 5,1 10,2 16,2 4,0 8,-1 11,-2 4,-1 7,-2 9,-4 2,-3 3,-6 3,-9 0,-4 -1,-6 -3,-9 -2,-2 -4,-4 -8,-5 -4,-1 -8,-1 -14,-1l-11 0 0 -11 9 0c8,0 13,-1 18,-3 4,-2 6,-5 6,-10 0,-5 -1,-8 -5,-10 -3,-2 -8,-3 -14,-3 -5,0 -9,0 -13,1 -3,1 -7,3 -11,5l-5 -11c5,-2 9,-3 14,-4 5,-1 10,-2 15,-2zm87 0c10,0 18,3 23,7 5,5 7,12 7,22l0 58 -9 0 -3 -13 0 0c-3,4 -5,6 -8,8 -2,2 -5,4 -9,5 -3,1 -7,2 -12,2 -5,0 -10,-1 -14,-3 -4,-2 -7,-5 -9,-8 -3,-4 -4,-9 -4,-14 0,-9 4,-15 10,-20 7,-5 17,-7 31,-7l15 -1 0 -5c0,-8 -2,-13 -5,-16 -3,-3 -8,-4 -13,-4 -5,0 -9,0 -13,2 -4,1 -8,2 -12,4l-4 -10c4,-2 9,-3 14,-5 5,-1 10,-2 15,-2zm18 45l-13 1c-11,0 -19,2 -23,5 -4,3 -6,7 -6,13 0,5 1,8 4,11 3,2 7,3 12,3 7,0 13,-2 18,-6 5,-4 8,-11 8,-19l0 -8zm103 42l-13 0 0 -74 -26 0c-1,13 -3,25 -4,34 -2,10 -4,18 -6,24 -3,6 -5,10 -9,13 -3,3 -7,5 -12,5 -1,0 -2,-1 -4,-1 -1,0 -2,0 -3,0l0 -10c1,0 2,0 2,0 1,0 2,0 3,0 2,0 4,-1 6,-3 2,-2 4,-4 5,-8 2,-4 3,-9 5,-16 1,-6 2,-13 3,-21 1,-8 2,-18 2,-28l51 0 0 85zm60 -87c7,0 13,2 18,5 5,3 9,8 12,14 3,5 4,12 4,20l0 8 -59 0c1,10 3,17 8,23 5,5 12,8 20,8 6,0 10,-1 15,-2 4,-1 8,-2 12,-4l0 11c-4,2 -8,3 -12,4 -5,1 -10,2 -15,2 -8,0 -16,-2 -22,-5 -6,-4 -10,-9 -14,-15 -3,-7 -5,-15 -5,-24 0,-9 2,-17 5,-24 3,-6 7,-12 13,-15 5,-4 12,-6 20,-6zm-1 11c-6,0 -12,2 -16,7 -4,4 -7,10 -7,19l45 0c0,-6 -1,-10 -3,-14 -1,-4 -3,-7 -7,-9 -3,-2 -7,-3 -12,-3zm157 -9l-36 41 39 44 -15 0 -37 -43 0 43 -12 0 0 -43 -37 43 -15 0 38 -44 -35 -41 14 0 35 41 0 -41 12 0 0 41 35 -41 14 0zm30 0l0 36 47 0 0 -36 13 0 0 85 -13 0 0 -39 -47 0 0 39 -13 0 0 -85 13 0zm161 42c0,7 -1,13 -3,19 -1,5 -4,10 -8,14 -3,4 -7,7 -12,9 -5,2 -10,3 -16,3 -6,0 -11,-1 -16,-3 -5,-2 -9,-5 -12,-9 -4,-4 -6,-9 -8,-14 -2,-6 -3,-12 -3,-19 0,-9 1,-17 5,-24 3,-6 7,-11 13,-15 6,-3 13,-5 21,-5 8,0 15,2 21,5 5,4 10,9 13,16 3,6 5,14 5,23zm-65 0c0,7 1,13 3,18 2,5 5,9 8,12 4,2 9,4 15,4 6,0 11,-2 15,-4 3,-3 6,-7 8,-12 2,-5 3,-11 3,-18 0,-7 -1,-12 -3,-17 -2,-5 -5,-9 -8,-12 -4,-2 -9,-4 -15,-4 -9,0 -15,3 -20,9 -4,6 -6,14 -6,24zm121 45c-7,0 -14,-2 -20,-5 -6,-3 -10,-8 -14,-15 -3,-6 -4,-14 -4,-24 0,-10 1,-19 5,-25 3,-7 8,-12 14,-15 6,-3 13,-5 21,-5 4,0 8,1 12,2 4,0 7,1 10,3l-4 11c-3,-1 -6,-2 -9,-3 -4,-1 -7,-1 -10,-1 -6,0 -10,1 -14,3 -4,3 -7,7 -9,12 -2,4 -3,11 -3,18 0,7 1,12 3,17 2,5 4,9 8,12 4,2 9,3 14,3 5,0 9,0 13,-1 3,-1 6,-2 9,-3l0 11c-2,2 -6,3 -9,3 -4,1 -8,2 -13,2zm100 -76l-28 0 0 74 -12 0 0 -74 -28 0 0 -11 68 0 0 11zm30 -11l0 85 -13 0 0 -85 13 0zm-6 -32c2,0 4,1 5,2 2,1 3,4 3,6 0,3 -1,5 -3,7 -1,1 -3,2 -5,2 -2,0 -4,-1 -6,-2 -1,-2 -2,-4 -2,-7 0,-2 1,-5 2,-6 2,-1 4,-2 6,-2zm48 99l1 1c-1,4 -2,8 -3,12 -2,5 -3,9 -5,13 -2,5 -3,9 -5,12l-10 0c1,-4 2,-8 4,-13 1,-4 2,-9 2,-13 1,-5 2,-9 2,-12l14 0zm110 18l-12 0 0 -81c0,-3 0,-5 0,-7 0,-3 0,-5 0,-6 0,-2 0,-4 0,-6 -1,2 -3,3 -4,4 -2,1 -3,3 -6,4l-12 11 -7 -9 31 -24 10 0 0 114zm118 0l-75 0 0 -11 31 -31c5,-5 10,-10 14,-15 4,-4 7,-9 9,-13 2,-4 3,-9 3,-14 0,-7 -2,-12 -6,-15 -4,-4 -9,-5 -15,-5 -6,0 -10,1 -15,3 -4,1 -8,4 -12,7l-7 -8c3,-3 6,-5 9,-7 4,-2 8,-3 12,-5 4,-1 8,-1 13,-1 7,0 13,1 18,3 5,3 9,6 12,11 3,4 4,10 4,16 0,6 -1,11 -4,17 -2,5 -5,10 -10,15 -4,5 -9,10 -15,16l-24 25 0 0 58 0 0 12zm64 0l-12 0 0 -81c0,-3 0,-5 0,-7 0,-3 0,-5 0,-6 0,-2 0,-4 0,-6 -1,2 -3,3 -4,4 -2,1 -4,3 -6,4l-13 11 -6 -9 30 -24 11 0 0 114zm122 0l-14 -36 -46 0 -13 36 -14 0 45 -114 12 0 44 114 -14 0zm-18 -48l-13 -35c-1,-1 -1,-3 -2,-5 0,-2 -1,-4 -2,-6 -1,-3 -1,-5 -2,-6 0,2 -1,4 -1,6 -1,2 -2,4 -2,6 -1,2 -1,3 -2,5l-13 35 37 0z"/>
 </g>
</svg>
