<?xml version="1.0" encoding="UTF-8"?>
<!DOCTYPE svg PUBLIC "-//W3C//DTD SVG 1.1//EN" "http://www.w3.org/Graphics/SVG/1.1/DTD/svg11.dtd">
<!-- Creator: CorelDRAW X7 -->
<svg xmlns="http://www.w3.org/2000/svg" xml:space="preserve" width="8.7473mm" height="0.8623mm" version="1.1" style="shape-rendering:geometricPrecision; text-rendering:geometricPrecision; image-rendering:optimizeQuality; fill-rule:evenodd; clip-rule:evenodd"
viewBox="0 0 1747 172"
 xmlns:xlink="http://www.w3.org/1999/xlink">
 <defs>
  <style type="text/css">
   <![CDATA[
    .fil0 {fill:#FEFEFE;fill-rule:nonzero}
   ]]>
  </style>
 </defs>
 <g id="Слой_x0020_1">
  <metadata id="CorelCorpID_0Corel-Layer"/>
  <path class="fil0" d="M73 62c0,6 -2,11 -5,14 -4,3 -8,5 -13,6l0 1c6,1 11,3 15,6 4,3 6,8 6,15 0,5 -1,10 -4,14 -2,4 -6,7 -12,10 -5,2 -12,3 -21,3l-39 0 0 -92 39 0c7,0 13,1 18,3 5,1 9,3 12,7 2,3 4,8 4,13zm-12 42c0,-5 -2,-9 -6,-11 -4,-3 -10,-4 -18,-4l-23 0 0 31 24 0c7,0 13,-1 17,-4 4,-2 6,-6 6,-12zm-2 -40c0,-4 -2,-8 -5,-10 -3,-2 -8,-3 -16,-3l-24 0 0 26 22 0c7,0 13,-1 17,-3 4,-2 6,-5 6,-10zm25 -25l15 0 20 54c1,3 2,6 3,9 1,2 2,5 3,8 1,2 1,5 2,7l0 0c1,-2 2,-6 4,-11 1,-4 3,-9 4,-14l20 -53 15 0 -40 105c-2,6 -5,11 -8,15 -3,4 -6,8 -10,10 -4,2 -9,3 -15,3 -2,0 -4,0 -7,0 -2,-1 -3,-1 -5,-1l0 -11c2,0 3,0 5,0 2,1 3,1 5,1 4,0 7,-1 9,-2 3,-2 5,-4 7,-6 2,-3 3,-6 5,-9l5 -13 -37 -92zm169 92l-14 0 0 -80 -28 0c-1,15 -3,27 -4,37 -2,11 -4,19 -7,26 -2,6 -5,11 -9,14 -3,3 -8,5 -13,5 -1,0 -3,0 -4,0 -1,-1 -2,-1 -3,-1l0 -11c0,0 1,1 2,1 1,0 2,0 2,0 3,0 5,-1 7,-3 2,-2 4,-6 6,-10 2,-4 3,-10 5,-16 1,-7 2,-14 3,-23 1,-9 2,-19 3,-31l54 0 0 92zm27 -9c0,-4 1,-7 3,-9 2,-1 4,-2 7,-2 3,0 5,1 7,2 2,2 3,5 3,9 0,4 -1,6 -3,8 -2,2 -4,3 -7,3 -3,0 -5,-1 -7,-3 -2,-2 -3,-4 -3,-8zm94 -113l35 0c15,0 26,2 34,7 8,4 12,12 12,23 0,5 -1,9 -3,13 -2,3 -5,7 -8,9 -4,2 -8,4 -13,5l0 1c5,1 10,2 14,5 4,2 8,5 10,9 2,4 4,9 4,15 0,8 -2,14 -6,19 -3,6 -8,9 -14,12 -7,3 -14,4 -23,4l-42 0 0 -122zm14 52l24 0c10,0 18,-2 22,-5 4,-4 6,-9 6,-15 0,-7 -3,-12 -8,-16 -4,-3 -12,-4 -23,-4l-21 0 0 40zm0 12l0 46 26 0c10,0 18,-2 23,-6 4,-5 6,-10 6,-18 0,-4 -1,-8 -3,-12 -2,-3 -5,-5 -10,-7 -4,-2 -10,-3 -18,-3l-24 0zm173 12c0,8 0,14 -2,20 -2,6 -5,11 -9,15 -4,4 -8,7 -13,10 -5,2 -11,3 -18,3 -6,0 -12,-1 -17,-3 -5,-3 -9,-6 -13,-10 -4,-4 -7,-9 -9,-15 -2,-6 -3,-12 -3,-20 0,-10 2,-19 5,-26 4,-7 9,-12 15,-16 6,-3 14,-5 23,-5 8,0 15,2 22,5 6,4 11,9 14,17 4,7 5,15 5,25zm-69 0c0,7 1,14 3,19 2,6 5,10 9,13 4,3 9,4 15,4 7,0 12,-1 16,-4 4,-3 7,-7 9,-13 2,-5 3,-12 3,-19 0,-7 -1,-14 -3,-19 -2,-5 -5,-9 -9,-12 -4,-3 -9,-5 -16,-5 -9,0 -16,4 -21,10 -4,6 -6,15 -6,26zm137 -47c11,0 20,4 27,11 7,8 10,20 10,36 0,10 -1,19 -5,26 -3,7 -7,13 -13,16 -5,4 -12,6 -20,6 -5,0 -9,-1 -13,-2 -3,-1 -6,-3 -9,-5 -3,-3 -5,-5 -7,-7l-1 0c1,2 1,4 1,7 0,3 0,6 0,8l0 38 -13 0 0 -133 11 0 2 14 0 0c2,-3 4,-5 7,-8 3,-2 6,-4 9,-5 4,-2 9,-2 14,-2zm-3 11c-6,0 -11,2 -15,4 -4,3 -7,6 -9,11 -1,5 -2,11 -3,18l0 3c0,8 1,14 3,20 2,5 5,9 8,12 4,3 10,4 16,4 6,0 11,-1 15,-4 3,-3 6,-8 8,-13 2,-6 3,-12 3,-19 0,-11 -2,-20 -6,-26 -5,-6 -11,-10 -20,-10zm143 36c0,8 -1,14 -3,20 -2,6 -4,11 -8,15 -4,4 -8,7 -13,10 -6,2 -11,3 -18,3 -6,0 -12,-1 -17,-3 -5,-3 -9,-6 -13,-10 -4,-4 -7,-9 -9,-15 -2,-6 -3,-12 -3,-20 0,-10 2,-19 5,-26 4,-7 9,-12 15,-16 6,-3 14,-5 23,-5 8,0 15,2 22,5 6,4 11,9 14,17 4,7 5,15 5,25zm-69 0c0,7 1,14 3,19 1,6 4,10 9,13 4,3 9,4 15,4 7,0 12,-1 16,-4 4,-3 7,-7 9,-13 2,-5 3,-12 3,-19 0,-7 -1,-14 -3,-19 -2,-5 -5,-9 -9,-12 -4,-3 -9,-5 -16,-5 -9,0 -16,4 -21,10 -4,6 -6,15 -6,26zm89 -9c0,-13 1,-24 3,-33 3,-10 7,-17 12,-23 5,-5 12,-9 20,-11 8,-2 15,-4 22,-5 8,-2 15,-3 22,-4l2 12c-3,1 -7,1 -11,2 -4,1 -8,1 -12,2 -3,1 -7,1 -10,2 -4,1 -7,2 -9,2 -5,2 -9,4 -13,7 -3,3 -6,8 -8,13 -2,6 -3,13 -3,21l1 0c1,-2 4,-4 7,-7 2,-2 6,-4 10,-6 4,-1 8,-2 13,-2 8,0 15,1 20,5 6,3 10,8 12,14 3,7 4,14 4,22 0,10 -1,18 -5,25 -3,7 -8,12 -14,16 -7,3 -14,5 -22,5 -7,0 -12,-1 -18,-4 -5,-3 -9,-6 -12,-11 -4,-5 -7,-11 -9,-18 -1,-7 -2,-15 -2,-24zm42 45c5,0 10,-1 14,-3 3,-2 6,-6 8,-11 3,-5 4,-11 4,-19 0,-9 -2,-17 -6,-22 -4,-6 -10,-9 -18,-9 -5,0 -9,1 -14,4 -4,2 -7,4 -10,7 -3,3 -5,6 -6,8 0,6 0,11 1,17 1,5 2,10 4,14 2,5 5,8 9,10 4,3 8,4 14,4zm118 -82l15 0 -40 45 43 47 -16 0 -42 -46 0 46 -14 0 0 -92 14 0 0 45 40 -45zm70 -1c8,0 15,1 20,5 6,3 10,8 13,14 3,7 4,14 4,22l0 9 -63 0c0,11 3,19 8,24 5,6 13,9 22,9 6,0 11,-1 15,-2 5,-1 9,-2 14,-4l0 12c-4,2 -9,3 -13,4 -5,1 -10,2 -17,2 -8,0 -16,-2 -23,-6 -6,-3 -11,-8 -15,-16 -3,-6 -5,-15 -5,-25 0,-10 1,-19 5,-26 3,-7 8,-13 14,-16 6,-4 13,-6 21,-6zm0 11c-7,0 -13,3 -18,7 -4,5 -7,12 -8,21l49 0c0,-6 -1,-11 -3,-15 -1,-4 -4,-7 -7,-9 -4,-3 -8,-4 -13,-4zm134 13c0,6 -2,11 -5,14 -4,3 -8,5 -13,6l0 1c6,1 11,3 15,6 4,3 6,8 6,15 0,5 -1,10 -4,14 -2,4 -6,7 -12,10 -5,2 -12,3 -21,3l-39 0 0 -92 39 0c7,0 13,1 18,3 5,1 9,3 12,7 2,3 4,8 4,13zm-12 42c0,-5 -2,-9 -6,-11 -4,-3 -10,-4 -18,-4l-23 0 0 31 24 0c7,0 13,-1 17,-4 4,-2 6,-6 6,-12zm-2 -40c0,-4 -2,-8 -5,-10 -3,-2 -8,-3 -16,-3l-24 0 0 26 22 0c7,0 13,-1 17,-3 4,-2 6,-5 6,-10zm53 -25l0 58c0,1 0,3 0,4 -1,2 -1,4 -1,6 0,2 0,4 0,6 0,1 0,3 0,4l50 -78 17 0 0 92 -13 0 0 -56c0,-2 0,-4 0,-7 0,-3 0,-6 0,-8 0,-3 0,-5 0,-7l-49 78 -18 0 0 -92 14 0zm107 0l0 33c0,6 2,10 5,13 3,3 8,4 14,4 6,0 11,-1 16,-3 4,-1 9,-4 14,-7l0 -40 14 0 0 92 -14 0 0 -41c-5,3 -10,6 -15,8 -5,2 -11,3 -18,3 -9,0 -17,-3 -22,-8 -5,-5 -7,-11 -7,-20l0 -34 13 0zm127 -1c11,0 19,2 24,7 5,5 8,13 8,24l0 62 -10 0 -3 -13 -1 0c-2,3 -5,6 -8,8 -2,2 -6,4 -9,5 -4,1 -8,2 -14,2 -5,0 -10,-1 -15,-3 -4,-2 -7,-5 -10,-9 -2,-4 -4,-9 -4,-15 0,-9 4,-16 11,-21 8,-5 19,-8 33,-8l16 -1 0 -6c0,-8 -1,-13 -5,-16 -3,-4 -8,-5 -14,-5 -5,0 -10,1 -14,2 -4,1 -8,3 -12,5l-5 -11c5,-2 9,-4 15,-5 5,-2 11,-2 17,-2zm18 48l-14 0c-11,1 -19,3 -24,6 -5,3 -7,8 -7,14 0,5 2,9 5,12 3,2 7,3 12,3 9,0 15,-2 20,-6 6,-5 8,-12 8,-21l0 -8zm58 25l1 2c-1,4 -2,9 -3,13 -2,5 -4,9 -5,14 -2,5 -4,9 -6,13l-10 0c1,-4 2,-9 3,-14 1,-5 2,-10 3,-15 1,-4 2,-9 3,-13l14 0zm143 -74c0,6 -1,10 -3,14 -2,4 -5,8 -9,10 -4,3 -9,5 -14,6l0 0c10,2 17,5 22,10 5,5 8,11 8,19 0,8 -2,14 -5,19 -4,6 -9,10 -16,13 -6,3 -15,5 -26,5 -6,0 -12,-1 -18,-2 -5,-1 -11,-2 -16,-5l0 -13c5,3 11,5 17,6 6,2 12,2 17,2 11,0 20,-2 24,-6 5,-5 8,-11 8,-19 0,-5 -1,-9 -4,-13 -3,-3 -7,-5 -12,-7 -5,-1 -11,-2 -19,-2l-12 0 0 -12 12 0c7,0 13,-1 17,-3 5,-2 8,-5 11,-8 2,-4 3,-8 3,-13 0,-6 -2,-11 -6,-14 -4,-4 -9,-5 -17,-5 -4,0 -8,0 -11,1 -4,1 -7,2 -10,4 -4,1 -7,3 -10,5l-7 -9c5,-4 10,-7 16,-9 7,-3 14,-4 22,-4 13,0 22,3 28,8 7,6 10,13 10,22zm98 0c0,6 -1,10 -3,14 -3,4 -5,8 -9,10 -4,3 -9,5 -14,6l0 0c10,2 17,5 22,10 5,5 8,11 8,19 0,8 -2,14 -5,19 -4,6 -9,10 -16,13 -7,3 -15,5 -26,5 -6,0 -12,-1 -18,-2 -5,-1 -11,-2 -16,-5l0 -13c5,3 11,5 17,6 6,2 12,2 17,2 11,0 19,-2 24,-6 5,-5 8,-11 8,-19 0,-5 -1,-9 -4,-13 -3,-3 -7,-5 -12,-7 -5,-1 -11,-2 -19,-2l-12 0 0 -12 12 0c7,0 13,-1 17,-3 5,-2 8,-5 11,-8 2,-4 3,-8 3,-13 0,-6 -2,-11 -6,-14 -4,-4 -9,-5 -17,-5 -4,0 -8,0 -11,1 -4,1 -7,2 -10,4 -4,1 -7,3 -10,5l-7 -9c5,-4 10,-7 16,-9 7,-3 14,-4 22,-4 13,0 22,3 28,8 7,6 10,13 10,22z"/>
 </g>
</svg>
