<?xml version="1.0" encoding="UTF-8"?>
<!DOCTYPE svg PUBLIC "-//W3C//DTD SVG 1.1//EN" "http://www.w3.org/Graphics/SVG/1.1/DTD/svg11.dtd">
<!-- Creator: CorelDRAW X7 -->
<svg xmlns="http://www.w3.org/2000/svg" xml:space="preserve" width="4.5326mm" height="0.9579mm" version="1.1" style="shape-rendering:geometricPrecision; text-rendering:geometricPrecision; image-rendering:optimizeQuality; fill-rule:evenodd; clip-rule:evenodd"
viewBox="0 0 300 63"
 xmlns:xlink="http://www.w3.org/1999/xlink">
 <defs>
  <style type="text/css">
   <![CDATA[
    .fil0 {fill:#FEFEFE;fill-rule:nonzero}
   ]]>
  </style>
 </defs>
 <g id="Слой_x0020_1">
  <metadata id="CorelCorpID_0Corel-Layer"/>
  <path class="fil0" d="M47 1l0 37 6 0 0 25 -13 0 0 -14 -27 0 0 14 -13 0 0 -25 4 0c1,-3 3,-5 4,-8 1,-3 2,-6 3,-9 1,-3 2,-7 2,-10 1,-3 1,-7 2,-10l32 0zm-13 10l-9 0c0,3 -1,5 -1,7 0,3 -1,5 -1,7 -1,2 -2,4 -3,7 0,2 -1,4 -2,6l16 0 0 -27zm60 1c0,3 -1,6 -3,8 -2,1 -5,3 -8,3l0 1c4,0 7,1 10,3 2,2 3,5 3,8 0,3 -1,5 -3,7 -1,3 -3,4 -6,5 -3,2 -7,2 -11,2 -4,0 -8,0 -11,0 -3,-1 -6,-1 -8,-2l0 -11c2,0 3,1 5,1 2,1 4,1 5,1 2,1 4,1 5,1 4,0 7,-1 8,-1 2,-1 3,-3 3,-4 0,-2 -1,-3 -3,-4 -2,-1 -5,-1 -8,-1l-6 0 0 -11 5 0c3,0 5,0 6,0 2,0 3,-1 3,-1 1,-1 1,-2 1,-3 0,-1 -1,-2 -2,-2 -1,-1 -2,-1 -5,-1 -2,0 -4,0 -6,0 -2,1 -4,2 -5,3l-6 -9c2,-1 4,-2 6,-3 2,-1 4,-1 6,-1 2,-1 5,-1 8,-1 3,0 6,1 9,2 2,1 4,2 6,4 1,2 2,4 2,6zm10 -11l17 0c7,0 12,1 15,3 3,2 4,5 4,9 0,2 0,4 -1,5 -1,1 -2,3 -3,3 -1,1 -2,2 -3,2l0 1c1,0 2,0 3,1 2,1 3,2 4,4 1,1 1,3 1,6 0,2 -1,5 -2,7 -2,2 -4,4 -7,5 -2,1 -6,2 -9,2l-19 0 0 -48zm13 18l4 0c2,0 4,0 4,-1 1,-1 2,-2 2,-3 0,-2 -1,-3 -2,-3 -1,-1 -2,-1 -4,-1l-4 0 0 8zm0 10l0 10 5 0c2,0 3,-1 4,-2 1,-1 2,-2 2,-4 0,0 -1,-1 -1,-2 0,-1 -1,-1 -2,-2 -1,0 -2,0 -4,0l-4 0zm77 -4c0,3 0,7 -1,10 -1,3 -3,5 -4,8 -2,2 -5,3 -8,5 -3,1 -6,1 -10,1 -4,0 -8,0 -11,-1 -3,-2 -5,-3 -7,-5 -2,-3 -3,-5 -4,-8 -1,-3 -1,-7 -1,-10 0,-5 0,-10 2,-13 2,-4 4,-7 8,-9 3,-2 7,-3 13,-3 5,0 10,1 13,3 4,2 6,5 8,9 1,3 2,8 2,13zm-33 0c0,3 0,5 1,7 1,2 2,4 3,5 2,1 3,2 6,2 2,0 4,-1 5,-2 2,-1 3,-3 3,-5 1,-2 1,-4 1,-7 0,-5 0,-8 -2,-11 -1,-2 -4,-3 -7,-3 -2,0 -4,0 -6,1 -1,1 -2,3 -3,5 -1,2 -1,5 -1,8zm83 24l-13 0 0 -20 -15 0 0 20 -13 0 0 -48 13 0 0 17 15 0 0 -17 13 0 0 48zm10 -48l12 0 0 22c0,1 0,2 0,3 0,1 0,2 0,3 0,1 0,2 0,3 0,1 0,2 0,2l0 0 20 -33 14 0 0 48 -12 0 0 -21c0,-1 0,-2 0,-3 0,-1 0,-2 0,-4 0,-1 1,-2 1,-3 0,-1 0,-2 0,-3l0 0 -20 34 -15 0 0 -48z"/>
 </g>
</svg>
