<?xml version="1.0" encoding="UTF-8"?>
<!DOCTYPE svg PUBLIC "-//W3C//DTD SVG 1.1//EN" "http://www.w3.org/Graphics/SVG/1.1/DTD/svg11.dtd">
<!-- Creator: CorelDRAW X7 -->
<svg xmlns="http://www.w3.org/2000/svg" xml:space="preserve" width="4.1221mm" height="0.7444mm" version="1.1" style="shape-rendering:geometricPrecision; text-rendering:geometricPrecision; image-rendering:optimizeQuality; fill-rule:evenodd; clip-rule:evenodd"
viewBox="0 0 285 51"
 xmlns:xlink="http://www.w3.org/1999/xlink">
 <defs>
  <style type="text/css">
   <![CDATA[
    .fil0 {fill:#FEFEFE;fill-rule:nonzero}
   ]]>
  </style>
 </defs>
 <g id="Слой_x0020_1">
  <metadata id="CorelCorpID_0Corel-Layer"/>
  <path class="fil0" d="M0 51l0 -50 41 0 0 50 -14 0 0 -39 -13 0 0 39 -14 0zm69 -50c6,0 11,1 14,4 3,3 5,7 5,12 0,2 -1,4 -1,6 -1,2 -2,4 -3,6 -2,1 -4,3 -6,4 -3,1 -6,1 -9,1l-4 0 0 17 -13 0 0 -50 17 0zm0 11l-4 0 0 11 3 0c1,0 2,0 3,0 1,-1 2,-2 2,-2 1,-1 1,-3 1,-4 0,-2 0,-3 -1,-4 -1,-1 -2,-1 -4,-1zm73 14c0,4 0,7 -1,10 -1,3 -2,6 -4,8 -2,3 -5,4 -8,6 -3,1 -7,1 -11,1 -4,0 -8,0 -11,-1 -3,-2 -5,-3 -7,-6 -2,-2 -4,-5 -5,-8 -1,-3 -1,-6 -1,-10 0,-6 1,-10 2,-14 2,-4 5,-7 8,-9 4,-2 9,-3 14,-3 6,0 11,1 14,3 4,2 6,5 8,9 2,4 2,8 2,14zm-34 0c0,3 0,5 1,7 1,3 2,4 3,5 2,2 4,2 6,2 3,0 5,0 6,-2 2,-1 3,-2 3,-5 1,-2 1,-4 1,-7 0,-5 -1,-8 -2,-11 -2,-3 -4,-4 -8,-4 -2,0 -4,1 -6,2 -1,1 -2,3 -3,5 -1,2 -1,5 -1,8zm66 -15c-2,0 -3,0 -5,1 -1,1 -2,2 -3,3 -1,1 -1,3 -2,5 0,2 -1,4 -1,6 0,3 1,6 2,8 0,2 2,4 3,5 2,1 4,1 6,1 3,0 5,0 7,-1 2,0 4,-1 6,-2l0 12c-2,1 -4,1 -7,2 -2,0 -4,0 -7,0 -5,0 -10,-1 -13,-3 -4,-2 -6,-5 -8,-9 -2,-4 -2,-8 -2,-13 0,-4 0,-7 1,-11 1,-3 3,-5 5,-8 2,-2 4,-4 7,-5 3,-1 7,-2 11,-2 2,0 5,0 7,1 3,0 6,1 8,3l-4 10c-2,-1 -4,-1 -5,-2 -2,-1 -4,-1 -6,-1zm45 40l-14 0 0 -39 -12 0 0 -11 38 0 0 11 -12 0 0 39zm66 -25c0,4 -1,7 -2,10 -1,3 -2,6 -4,8 -2,3 -4,4 -8,6 -3,1 -6,1 -11,1 -4,0 -7,0 -10,-1 -3,-2 -6,-3 -8,-6 -2,-2 -3,-5 -4,-8 -1,-3 -2,-6 -2,-10 0,-6 1,-10 3,-14 1,-4 4,-7 8,-9 3,-2 8,-3 14,-3 5,0 10,1 13,3 4,2 7,5 8,9 2,4 3,8 3,14zm-35 0c0,3 1,5 1,7 1,3 2,4 4,5 1,2 3,2 5,2 3,0 5,0 6,-2 2,-1 3,-2 4,-5 0,-2 1,-4 1,-7 0,-5 -1,-8 -3,-11 -1,-3 -4,-4 -7,-4 -3,0 -5,1 -6,2 -2,1 -3,3 -4,5 0,2 -1,5 -1,8z"/>
 </g>
</svg>
