<?xml version="1.0" encoding="UTF-8"?>
<!DOCTYPE svg PUBLIC "-//W3C//DTD SVG 1.1//EN" "http://www.w3.org/Graphics/SVG/1.1/DTD/svg11.dtd">
<!-- Creator: CorelDRAW X7 -->
<svg xmlns="http://www.w3.org/2000/svg" xml:space="preserve" width="3.6655mm" height="0.7444mm" version="1.1" style="shape-rendering:geometricPrecision; text-rendering:geometricPrecision; image-rendering:optimizeQuality; fill-rule:evenodd; clip-rule:evenodd"
viewBox="0 0 267 54"
 xmlns:xlink="http://www.w3.org/1999/xlink">
 <defs>
  <style type="text/css">
   <![CDATA[
    .fil0 {fill:#FEFEFE;fill-rule:nonzero}
   ]]>
  </style>
 </defs>
 <g id="Слой_x0020_1">
  <metadata id="CorelCorpID_0Corel-Layer"/>
  <path class="fil0" d="M40 13c0,4 -1,6 -3,8 -2,3 -5,4 -9,5l0 0c5,0 9,2 11,4 2,2 3,5 3,8 0,4 0,6 -2,9 -2,2 -4,4 -8,5 -3,2 -7,2 -12,2 -4,0 -8,0 -11,-1 -4,0 -7,-1 -9,-2l0 -12c2,1 3,2 5,2 2,1 4,1 6,1 2,0 4,1 6,1 4,0 7,-1 8,-2 2,-1 3,-2 3,-4 0,-2 -1,-3 -3,-4 -2,-1 -5,-1 -9,-1l-6 0 0 -12 5 0c3,0 5,0 7,0 2,-1 3,-1 3,-2 1,0 1,-1 1,-2 0,-2 0,-3 -2,-3 -1,-1 -3,-1 -5,-1 -3,0 -5,0 -7,1 -2,0 -4,1 -6,2l-6 -9c2,-2 4,-3 6,-4 2,0 4,-1 7,-1 2,-1 5,-1 8,-1 4,0 8,1 11,2 2,1 5,2 6,4 2,2 2,5 2,7zm44 40l-3 -9 -17 0 -2 9 -16 0 17 -52 19 0 17 52 -15 0zm-6 -21l-2 -9c0,-1 0,-2 -1,-4 0,-1 -1,-3 -1,-5 -1,-2 -1,-3 -1,-5 -1,2 -1,3 -1,5 -1,2 -1,3 -1,5 -1,2 -1,3 -2,4l-2 9 11 0zm45 -31c7,0 12,1 15,4 4,3 5,7 5,13 0,2 0,4 -1,6 0,3 -2,5 -3,6 -2,2 -4,3 -6,4 -3,1 -6,2 -10,2l-4 0 0 17 -14 0 0 -52 18 0zm0 11l-4 0 0 12 3 0c1,0 3,0 4,0 1,-1 1,-1 2,-2 1,-1 1,-3 1,-4 0,-2 0,-3 -1,-4 -1,-1 -3,-2 -5,-2zm61 41l-3 -9 -17 0 -2 9 -16 0 17 -52 19 0 18 52 -16 0zm-6 -21l-2 -9c0,-1 0,-2 -1,-4 0,-1 -1,-3 -1,-5 -1,-2 -1,-3 -1,-5 0,2 -1,3 -1,5 -1,2 -1,3 -1,5 -1,2 -1,3 -1,4l-3 9 11 0zm65 -19c0,4 -1,6 -3,8 -2,3 -5,4 -9,5l0 0c5,0 8,2 11,4 2,2 3,5 3,8 0,4 -1,6 -2,9 -2,2 -5,4 -8,5 -3,2 -7,2 -12,2 -4,0 -8,0 -12,-1 -3,0 -6,-1 -8,-2l0 -12c1,1 3,2 5,2 2,1 4,1 6,1 2,0 4,1 5,1 4,0 7,-1 9,-2 2,-1 3,-2 3,-4 0,-2 -1,-3 -3,-4 -2,-1 -6,-1 -10,-1l-6 0 0 -12 6 0c3,0 5,0 7,0 1,-1 2,-1 3,-2 1,0 1,-1 1,-2 0,-2 -1,-3 -2,-3 -1,-1 -3,-1 -6,-1 -2,0 -4,0 -6,1 -2,0 -4,1 -6,2l-6 -9c2,-2 4,-3 6,-4 2,0 4,-1 6,-1 3,-1 6,-1 9,-1 4,0 7,1 10,2 3,1 5,2 7,4 1,2 2,5 2,7zm22 22l-12 0 -1 -34 15 0 -2 34zm-13 12c0,-2 1,-4 2,-5 1,-1 3,-2 5,-2 2,0 4,1 6,2 1,1 2,3 2,5 0,3 -1,4 -2,6 -2,1 -4,1 -6,1 -2,0 -4,0 -5,-1 -1,-2 -2,-3 -2,-6z"/>
 </g>
</svg>
