<?xml version="1.0" encoding="UTF-8"?>
<!DOCTYPE svg PUBLIC "-//W3C//DTD SVG 1.1//EN" "http://www.w3.org/Graphics/SVG/1.1/DTD/svg11.dtd">
<!-- Creator: CorelDRAW X7 -->
<svg xmlns="http://www.w3.org/2000/svg" xml:space="preserve" width="3.0607mm" height="4.4726mm" version="1.1" style="shape-rendering:geometricPrecision; text-rendering:geometricPrecision; image-rendering:optimizeQuality; fill-rule:evenodd; clip-rule:evenodd"
viewBox="0 0 79 115"
 xmlns:xlink="http://www.w3.org/1999/xlink">
 <defs>
  <style type="text/css">
   <![CDATA[
    .fil1 {fill:#0A6AAE;fill-rule:nonzero}
    .fil3 {fill:#8DDCF7;fill-rule:nonzero}
    .fil0 {fill:#EBB012;fill-rule:nonzero}
    .fil4 {fill:#FFF7BD;fill-rule:nonzero}
    .fil2 {fill:white;fill-rule:nonzero}
   ]]>
  </style>
 </defs>
 <g id="Слой_x0020_1">
  <metadata id="CorelCorpID_0Corel-Layer"/>
  <g id="_887648112">
   <path class="fil0" d="M16 53c0,9 10,13 15,10 4,-3 3,-25 3,-25 0,0 -10,-7 -10,-4 0,10 -8,12 -8,19z"/>
   <path class="fil0" d="M63 53c0,9 -10,13 -15,10 -5,-3 -4,-25 -4,-25 0,0 10,-8 10,-5 0,10 9,13 9,20z"/>
   <path class="fil1" d="M15 53c1,7 7,13 14,12 6,-1 6,-9 7,-14 0,-3 0,-6 0,-9 0,-1 0,-4 -1,-5 -2,-1 -3,-2 -5,-3 -2,-1 -5,-2 -7,-1 -1,0 -1,3 -1,4 0,2 -1,4 -2,6 -2,3 -4,6 -5,10 0,1 2,1 2,0 0,-3 2,-6 4,-8 2,-3 3,-6 3,-10 0,0 0,-1 0,-1 0,0 0,0 0,0 1,0 1,0 2,1 1,0 2,1 4,1 1,1 3,2 4,3 0,0 0,-1 0,-1 0,6 0,13 -1,19 0,2 -1,3 -2,5 -1,1 -3,1 -4,1 -5,0 -10,-5 -10,-10 0,-1 -2,-1 -2,0z"/>
   <path class="fil1" d="M62 53c0,4 -3,8 -7,10 -2,1 -6,1 -7,-2 -2,-3 -2,-6 -2,-9 0,-4 0,-7 0,-10 0,-1 0,-2 0,-3 0,0 0,0 0,-1 0,0 -1,1 0,1 2,-2 4,-4 6,-5 1,0 1,0 2,0 0,0 0,-1 0,0 0,0 0,1 0,1 0,2 1,4 2,6 1,3 4,6 6,9 0,1 0,2 0,3 0,1 2,1 2,0 0,-3 -2,-6 -4,-9 -1,-1 -2,-3 -3,-4 -1,-2 -1,-5 -2,-7 0,-4 -10,3 -11,4 -1,1 0,3 0,4 0,3 0,6 0,9 0,4 0,13 5,15 3,1 7,0 10,-2 3,-2 5,-6 5,-10 0,-1 -2,-1 -2,0z"/>
   <path class="fil2" d="M61 59c-10,-6 -20,-12 -22,-12 -2,0 -12,6 -21,12 -8,5 -13,7 -16,19l-1 36 38 0 39 0 -1 -36c-4,-12 -9,-14 -16,-19z"/>
   <path class="fil1" d="M61 59c-5,-4 -10,-7 -15,-10 -2,-1 -5,-4 -7,-3 -4,1 -8,4 -11,6 -4,2 -9,5 -13,8 -5,3 -10,7 -12,13 -3,7 -2,13 -3,20 0,7 0,14 0,21 0,0 0,1 1,1l52 0 25 0c0,0 1,-1 1,-1 -1,-9 -1,-18 -1,-27 0,-6 -1,-13 -4,-18 -3,-5 -8,-8 -13,-10 -1,-1 -2,1 -1,1 5,3 9,5 12,10 4,5 4,12 4,18 0,9 0,17 1,26l1 -1 -53 0 -24 0 1 1c0,-5 0,-10 0,-14 0,-6 0,-12 1,-17 0,-8 4,-15 10,-19 3,-2 6,-4 9,-6 5,-3 9,-6 14,-9 1,0 3,-1 4,-1 1,0 3,1 4,2 6,3 11,7 16,10 1,1 2,-1 1,-1z"/>
   <path class="fil2" d="M31 66c3,0 3,-5 0,-5 -3,0 -3,5 0,5z"/>
   <path class="fil3" d="M48 63l-18 0 0 0 0 0c2,23 9,32 9,32 0,0 8,-9 9,-32l0 0c0,0 0,0 0,0z"/>
   <path class="fil1" d="M22 80l-2 0 0 -12c0,-10 9,-19 19,-19 10,0 19,9 19,19l0 6 -3 0 0 -6c0,-9 -7,-17 -16,-17 -9,0 -17,8 -17,17l0 12z"/>
   <path class="fil3" d="M17 82c0,2 2,4 4,4 3,0 5,-2 5,-4 0,-3 -2,-5 -5,-5 -2,0 -4,2 -4,5z"/>
   <path class="fil1" d="M21 78c-1,0 -3,2 -3,4 0,1 2,3 3,3 2,0 4,-2 4,-3 0,-2 -2,-4 -4,-4zm0 9c-3,0 -5,-2 -5,-5 0,-3 2,-6 5,-6 3,0 6,3 6,6 0,3 -3,5 -6,5z"/>
   <path class="fil1" d="M61 87l0 -2c1,0 1,-1 1,-1 0,0 0,-1 0,-1 0,-3 -2,-8 -5,-8 -4,0 -6,5 -6,8 0,0 0,1 0,1 0,0 0,1 1,1l0 2c-1,0 -2,-1 -3,-2 0,0 0,-1 0,-2 0,-4 3,-10 8,-10 4,0 7,6 7,10 0,1 0,2 0,2 -1,1 -2,2 -3,2z"/>
   <path class="fil1" d="M60 86c0,0 1,1 1,1 1,0 1,-1 1,-1 0,-1 0,-1 -1,-1 0,0 -1,0 -1,1z"/>
   <path class="fil1" d="M51 86c0,0 0,1 1,1 0,0 1,-1 1,-1 0,-1 -1,-1 -1,-1 -1,0 -1,0 -1,1z"/>
   <path class="fil4" d="M57 24c0,0 -1,0 -2,1 1,-16 -7,-19 -16,-19 -8,0 -16,3 -16,19 0,-1 -1,-1 -2,-1 -1,1 -2,3 -1,6 1,2 2,4 4,4 0,0 0,0 1,-1 1,4 3,7 5,9l0 0 0 21c0,1 15,4 18,-1l0 -20 0 0c3,-2 5,-5 6,-9 0,1 0,1 1,1 1,0 3,-2 4,-4 0,-3 0,-5 -2,-6z"/>
   <path class="fil1" d="M46 26c0,0 -1,1 -1,1 -1,0 -1,-1 -1,-1 0,-1 0,-1 1,-1 0,0 1,0 1,1z"/>
   <path class="fil1" d="M35 26c0,0 -1,1 -1,1 -1,0 -1,-1 -1,-1 0,-1 0,-1 1,-1 0,0 1,0 1,1z"/>
   <path class="fil1" d="M38 31c1,1 2,1 3,0 0,-1 0,-1 -1,-1 0,0 -1,0 -2,0 0,0 -1,0 0,1z"/>
   <path class="fil1" d="M42 35c-2,1 -4,1 -5,0 -1,-1 -2,0 -1,1 2,1 4,1 7,0 0,-1 0,-2 -1,-1z"/>
   <path class="fil3" d="M48 62c0,0 -10,7 -17,0l0 -16c1,3 12,5 17,0l0 16z"/>
   <path class="fil1" d="M47 63c-5,2 -11,2 -15,0 -1,-1 -2,1 -1,1 5,3 12,3 17,0 1,0 0,-2 -1,-1z"/>
   <path class="fil1" d="M47 47c-5,2 -11,2 -16,0 -1,-1 -2,1 -1,1 6,3 13,3 18,0 1,0 0,-2 -1,-1z"/>
   <path class="fil1" d="M57 23c-1,0 -2,0 -3,2 1,0 1,0 2,0 0,-6 0,-12 -5,-16 -3,-4 -7,-4 -12,-4 -4,0 -8,0 -12,3 -4,4 -5,11 -4,17 0,0 1,0 1,-1 -3,-3 -6,1 -5,5 0,2 3,8 6,5 0,0 -1,0 -1,-1 1,4 3,8 6,10 0,0 0,-1 0,-1l0 0c0,0 -1,0 -1,0 0,12 0,23 2,34 1,7 3,14 8,20 0,0 1,0 1,0 4,-6 6,-13 7,-20 3,-11 2,-22 2,-34 0,0 0,0 -1,0l0 0c0,0 1,1 1,1 3,-2 5,-6 6,-10 -1,1 -1,1 -2,1 5,4 10,-8 4,-11 -1,0 -1,2 0,2 3,1 -1,10 -3,8 0,-1 -1,-1 -1,0 -1,3 -3,6 -5,9 -1,0 -1,1 0,1l0 0 -1 -1c0,11 1,22 -1,33 -1,5 -3,10 -5,15 0,1 -1,2 -2,3 0,1 0,1 0,1 0,0 -1,1 0,0l1 0c0,1 0,0 0,0 0,0 -1,0 -1,-1 0,-1 -1,-2 -2,-3 -2,-5 -3,-10 -4,-15 -2,-11 -2,-22 -2,-33l-1 1 0 0c1,0 2,-1 1,-1 -3,-3 -4,-6 -5,-9 -1,-1 -1,-1 -2,0 -1,1 -3,-2 -3,-3 0,-1 -1,-7 2,-4 0,0 1,0 1,-1 0,-5 1,-11 4,-15 3,-3 7,-4 11,-4 4,0 8,1 11,4 4,3 4,10 4,15 0,1 1,1 2,1 0,-1 1,-1 1,-1 1,0 2,-1 0,-2z"/>
   <path class="fil0" d="M55 10c-3,-5 -11,-9 -16,-9 -8,0 -14,6 -16,9 -4,8 0,17 0,15 0,-4 10,-6 16,-14 3,6 13,7 13,16 0,2 8,-9 3,-17z"/>
   <path class="fil1" d="M56 9c-4,-6 -12,-10 -19,-9 -7,1 -14,6 -16,13 -1,3 -1,8 1,11 0,1 0,2 1,2 1,0 1,-1 1,-1 1,-3 5,-4 7,-5 3,-2 7,-5 9,-8l-1 0c1,3 5,5 8,7 2,1 3,3 4,5 0,1 0,2 0,3 0,1 1,1 1,1 2,1 4,-3 5,-5 2,-4 2,-9 -1,-14 -1,-1 -2,0 -2,1 3,4 3,9 1,13 0,1 -1,2 -2,3 0,0 0,0 0,1 -1,0 0,-1 0,0 0,-1 0,-2 0,-2 -2,-7 -10,-9 -13,-14 0,-1 -1,-1 -1,0 -3,3 -5,5 -8,7 -2,1 -5,2 -7,4 0,0 -1,1 -1,1 0,0 0,1 0,1 -1,1 1,1 1,0 -2,-3 -2,-7 -1,-10 1,-6 7,-10 13,-12 7,-1 15,2 18,8 1,1 3,0 2,-1z"/>
  </g>
 </g>
</svg>
