<?xml version="1.0" encoding="UTF-8"?>
<!DOCTYPE svg PUBLIC "-//W3C//DTD SVG 1.1//EN" "http://www.w3.org/Graphics/SVG/1.1/DTD/svg11.dtd">
<!-- Creator: CorelDRAW X7 -->
<svg xmlns="http://www.w3.org/2000/svg" xml:space="preserve" width="5.8199mm" height="0.6569mm" version="1.1" style="shape-rendering:geometricPrecision; text-rendering:geometricPrecision; image-rendering:optimizeQuality; fill-rule:evenodd; clip-rule:evenodd"
viewBox="0 0 571 64"
 xmlns:xlink="http://www.w3.org/1999/xlink">
 <defs>
  <style type="text/css">
   <![CDATA[
    .fil0 {fill:#FEFEFE;fill-rule:nonzero}
   ]]>
  </style>
 </defs>
 <g id="Слой_x0020_1">
  <metadata id="CorelCorpID_0Corel-Layer"/>
  <path class="fil0" d="M42 1l0 14 -25 0 0 48 -17 0 0 -62 42 0zm9 62l0 -62 17 0 0 62 -17 0zm84 0l-17 0 0 -25 -20 0 0 25 -17 0 0 -62 17 0 0 23 20 0 0 -23 17 0 0 62zm50 0l-37 0 0 -62 37 0 0 14 -20 0 0 9 19 0 0 14 -19 0 0 12 20 0 0 13zm66 0l-19 0 -19 -31 0 31 -17 0 0 -62 17 0 0 30 18 -30 19 0 -20 30 21 32zm65 -31c0,5 -1,9 -2,13 -1,4 -3,8 -5,11 -3,2 -6,5 -10,6 -4,2 -8,2 -14,2 -5,0 -9,0 -13,-2 -4,-1 -7,-4 -10,-6 -2,-3 -4,-7 -5,-11 -1,-4 -2,-8 -2,-13 0,-6 1,-12 3,-17 2,-5 6,-8 10,-11 5,-3 10,-4 17,-4 8,0 13,1 18,4 4,3 8,6 10,11 2,5 3,11 3,17zm-43 0c0,4 0,7 1,10 1,3 2,5 4,6 2,2 4,2 7,2 4,0 6,0 8,-2 2,-1 3,-3 4,-6 1,-3 1,-6 1,-10 0,-5 -1,-10 -3,-13 -2,-3 -5,-5 -10,-5 -3,0 -5,1 -7,2 -2,2 -3,4 -4,6 -1,3 -1,6 -1,10zm107 31l-17 0 0 -48 -12 0c0,2 0,5 0,8 -1,3 -1,6 -2,9 0,3 0,6 -1,9 0,2 -1,5 -1,7 -1,3 -2,6 -4,9 -1,2 -3,4 -5,5 -3,2 -6,2 -10,2 -1,0 -2,0 -3,0 -2,0 -3,0 -4,0l0 -14c1,1 2,1 3,1 0,0 1,0 2,0 1,0 1,0 2,0 1,-1 1,-2 2,-4 1,-2 1,-5 2,-8 0,-2 1,-4 1,-6 0,-2 1,-5 1,-9 1,-3 1,-7 2,-11 0,-4 1,-8 1,-12l43 0 0 62zm72 -31c0,5 0,9 -1,13 -2,4 -3,8 -6,11 -2,2 -5,5 -9,6 -4,2 -9,2 -14,2 -5,0 -10,0 -14,-2 -4,-1 -7,-4 -9,-6 -3,-3 -4,-7 -6,-11 -1,-4 -1,-8 -1,-13 0,-6 1,-12 3,-17 2,-5 5,-8 10,-11 4,-3 10,-4 17,-4 7,0 13,1 17,4 5,3 8,6 10,11 2,5 3,11 3,17zm-43 0c0,4 1,7 2,10 0,3 2,5 4,6 2,2 4,2 7,2 3,0 5,0 7,-2 2,-1 4,-3 4,-6 1,-3 2,-6 2,-10 0,-5 -1,-10 -3,-13 -2,-3 -5,-5 -10,-5 -3,0 -6,1 -7,2 -2,2 -4,4 -4,6 -1,3 -2,6 -2,10zm96 -31l0 14 -24 0 0 48 -17 0 0 -62 41 0zm48 62l-3 -11 -21 0 -3 11 -19 0 21 -62 22 0 21 62 -18 0zm-7 -25l-3 -10c0,-1 0,-3 -1,-5 0,-2 -1,-4 -2,-6 0,-3 0,-4 -1,-6 0,2 0,3 -1,5 0,3 -1,5 -1,7 -1,2 -1,3 -2,5l-2 10 13 0z"/>
 </g>
</svg>
