<?xml version="1.0" encoding="UTF-8"?>
<!DOCTYPE svg PUBLIC "-//W3C//DTD SVG 1.1//EN" "http://www.w3.org/Graphics/SVG/1.1/DTD/svg11.dtd">
<!-- Creator: CorelDRAW X7 -->
<svg xmlns="http://www.w3.org/2000/svg" xml:space="preserve" width="7.1534mm" height="0.8452mm" version="1.1" style="shape-rendering:geometricPrecision; text-rendering:geometricPrecision; image-rendering:optimizeQuality; fill-rule:evenodd; clip-rule:evenodd"
viewBox="0 0 561 66"
 xmlns:xlink="http://www.w3.org/1999/xlink">
 <defs>
  <style type="text/css">
   <![CDATA[
    .fil0 {fill:#FEFEFE;fill-rule:nonzero}
   ]]>
  </style>
 </defs>
 <g id="Слой_x0020_1">
  <metadata id="CorelCorpID_0Corel-Layer"/>
  <path class="fil0" d="M44 51l-16 0 -14 -26 0 26 -14 0 0 -50 14 0 0 24 14 -24 15 0 -16 24 17 26zm52 -25c0,4 -1,7 -2,10 -1,3 -2,6 -4,8 -2,3 -5,4 -8,6 -3,1 -6,2 -11,2 -4,0 -8,-1 -11,-2 -3,-2 -5,-3 -7,-6 -2,-2 -4,-5 -5,-8 -1,-3 -1,-6 -1,-10 0,-6 1,-10 3,-14 1,-4 4,-7 8,-9 3,-2 8,-3 13,-3 6,0 11,1 14,3 4,2 6,5 8,9 2,4 3,9 3,14zm-35 0c0,3 1,5 1,8 1,2 2,3 3,5 2,1 4,1 6,1 3,0 5,0 6,-1 2,-2 3,-3 3,-5 1,-3 1,-5 1,-8 0,-5 0,-8 -2,-11 -1,-3 -4,-4 -8,-4 -2,0 -4,1 -6,2 -1,1 -2,3 -3,5 0,2 -1,5 -1,8zm86 25l-13 0 0 -21 -16 0 0 21 -13 0 0 -50 13 0 0 18 16 0 0 -18 13 0 0 50zm34 -40c-2,0 -3,0 -5,1 -1,1 -2,2 -3,3 -1,1 -2,3 -2,5 0,2 -1,4 -1,6 0,3 1,6 2,8 0,2 2,4 3,5 2,1 4,2 6,2 3,0 5,-1 7,-1 2,-1 4,-2 6,-3l0 12c-2,1 -4,1 -7,2 -2,0 -5,1 -7,1 -6,0 -10,-2 -13,-4 -4,-2 -6,-5 -8,-9 -2,-4 -3,-8 -3,-13 0,-4 1,-7 2,-10 1,-4 3,-6 5,-9 2,-2 4,-4 7,-5 3,-1 7,-2 11,-2 2,0 5,0 7,1 3,0 6,1 8,3l-4 10c-2,-1 -4,-1 -6,-2 -1,-1 -3,-1 -5,-1zm66 -10l-15 35c-2,3 -3,6 -5,9 -2,2 -4,4 -7,5 -2,1 -6,2 -10,2 -1,0 -2,-1 -4,-1 -2,0 -3,0 -5,0l0 -12c2,1 3,1 5,1 1,0 2,1 4,1 1,0 2,-1 3,-1 0,0 1,-1 1,-2 1,0 1,-1 2,-1l-17 -36 15 0 6 15c0,1 1,2 1,3 0,1 1,2 1,3 1,2 1,3 1,3l1 0c0,-1 0,-2 1,-3 0,-2 1,-3 1,-5 1,-1 1,-2 1,-2l5 -14 15 0zm47 50l-14 0 0 -39 -9 0c0,2 0,4 -1,6 0,2 0,5 -1,7 0,3 0,5 -1,7 0,3 0,5 -1,6 0,3 -1,5 -2,7 -2,2 -3,4 -5,5 -2,1 -5,2 -8,2 -1,0 -2,-1 -3,-1 0,0 -1,0 -2,0l0 -11c1,1 1,1 2,1 0,0 1,0 1,0 1,0 2,0 2,-1 1,0 1,-1 2,-2 0,-2 1,-4 1,-7 1,-1 1,-3 1,-5 0,-2 1,-4 1,-7 1,-2 1,-5 1,-8 1,-3 1,-7 1,-10l35 0 0 50zm11 0l0 -50 13 0 0 17 5 0c5,0 8,1 11,2 3,2 5,3 6,6 1,2 2,5 2,8 0,5 -2,9 -5,12 -4,3 -9,5 -15,5l-17 0zm13 -11l4 0c2,0 4,0 5,-1 1,-1 1,-3 1,-5 0,-1 0,-2 0,-2 -1,-1 -2,-2 -3,-2 0,-1 -1,-1 -3,-1l-4 0 0 11zm54 11l-14 0 0 -39 -12 0 0 -11 38 0 0 11 -12 0 0 39zm50 0l-3 -10 -16 0 -2 10 -15 0 16 -50 18 0 17 50 -15 0zm-5 -21l-3 -8c0,-1 0,-2 -1,-4 0,-1 0,-3 -1,-5 0,-1 -1,-3 -1,-4 0,1 0,3 -1,4 0,2 0,3 -1,5 0,2 -1,3 -1,4l-2 8 11 0zm77 10l0 26 -14 0 0 -15 -38 0 0 -50 14 0 0 39 13 0 0 -39 14 0 0 39 11 0zm6 11l0 -50 14 0 0 50 -14 0zm44 -18l-10 18 -15 0 13 -22c-1,-1 -2,-2 -4,-3 -1,-1 -2,-3 -2,-4 -1,-2 -2,-4 -2,-6 0,-5 2,-9 6,-12 3,-2 8,-3 15,-3l16 0 0 50 -13 0 0 -18 -4 0zm4 -22l-3 0c-2,0 -3,0 -4,1 -1,0 -2,1 -2,2 -1,1 -1,1 -1,2 0,3 1,4 2,5 1,1 3,1 5,1l3 0 0 -11z"/>
 </g>
</svg>
