<?xml version="1.0" encoding="UTF-8"?>
<!DOCTYPE svg PUBLIC "-//W3C//DTD SVG 1.1//EN" "http://www.w3.org/Graphics/SVG/1.1/DTD/svg11.dtd">
<!-- Creator: CorelDRAW X7 -->
<svg xmlns="http://www.w3.org/2000/svg" xml:space="preserve" width="12.6014mm" height="0.6472mm" version="1.1" style="shape-rendering:geometricPrecision; text-rendering:geometricPrecision; image-rendering:optimizeQuality; fill-rule:evenodd; clip-rule:evenodd"
viewBox="0 0 1891 97"
 xmlns:xlink="http://www.w3.org/1999/xlink">
 <defs>
  <style type="text/css">
   <![CDATA[
    .fil0 {fill:#FEFEFE;fill-rule:nonzero}
   ]]>
  </style>
 </defs>
 <g id="Слой_x0020_1">
  <metadata id="CorelCorpID_0Corel-Layer"/>
  <path class="fil0" d="M40 76l0 -62 -18 0 0 32c0,8 -1,15 -1,19 -1,4 -2,7 -4,9 -2,2 -5,3 -9,3 -1,0 -4,0 -8,-1l0 -11 3 0c2,0 4,-1 5,-2 1,-1 1,-3 1,-6l0 -56 44 0 0 75 -13 0zm25 -61l0 -14 12 0 0 14 -12 0zm0 61l0 -54 12 0 0 54 -12 0zm64 -11l5 0 0 26 -10 0 0 -15 -35 0 0 -54 12 0 0 43 17 0 0 -43 11 0 0 43zm13 11l0 -14 12 0 0 14 -12 0zm623 0l-14 0 -5 -17 -25 0 -5 17 -13 0 24 -75 13 0 25 75zm-23 -29l-9 -28 -8 28 17 0zm29 -46l25 0c7,0 11,1 14,2 3,1 5,4 7,7 2,3 3,6 3,10 0,4 -1,7 -2,10 -2,3 -4,5 -7,7 4,1 7,3 9,6 2,3 3,7 3,12 0,5 -1,10 -4,14 -3,3 -6,6 -9,7 -3,0 -9,0 -18,0l-21 0 0 -75zm13 13l0 17 8 0c5,0 8,0 9,0 2,0 4,-1 5,-3 1,-1 2,-3 2,-6 0,-2 -1,-4 -2,-5 -1,-2 -2,-2 -3,-3 -2,0 -6,0 -12,0l-7 0zm0 30l0 20 11 0c5,0 9,-1 10,-1 1,-1 3,-2 4,-3 1,-2 1,-4 1,-6 0,-3 0,-5 -1,-6 -2,-2 -3,-3 -5,-3 -1,-1 -5,-1 -10,-1l-10 0zm50 32l0 -75 12 0 24 50 0 -50 12 0 0 75 -13 0 -23 -48 0 48 -12 0zm69 -19c-5,0 -9,-2 -12,-6 -3,-4 -5,-9 -5,-15 0,-7 2,-12 5,-15 3,-4 7,-6 12,-6 5,0 9,2 12,6 3,4 5,9 5,15 0,6 -2,11 -5,15 -3,4 -7,6 -12,6zm0 -32c-3,0 -5,4 -5,12 0,7 1,10 5,10 3,0 5,-4 5,-12 0,-7 -1,-10 -5,-10zm-15 48l0 -11 30 0 0 11 -30 0zm39 -16l12 -1c0,3 1,5 3,7 1,2 3,3 5,3 3,0 5,-1 7,-3 1,-3 2,-7 2,-12 0,-4 -1,-8 -2,-10 -2,-2 -4,-3 -7,-3 -3,0 -6,2 -9,5l-10 -2 6 -39 32 0 0 14 -23 0 -2 13c3,-2 6,-3 9,-3 4,0 9,2 12,6 4,5 6,11 6,19 0,7 -1,13 -5,18 -4,6 -9,9 -16,9 -5,0 -10,-2 -13,-6 -4,-3 -6,-8 -7,-15zm88 6l0 13 -42 0c1,-5 2,-9 4,-14 3,-5 7,-10 13,-18 6,-6 9,-10 10,-12 2,-3 3,-6 3,-9 0,-3 -1,-6 -3,-7 -1,-2 -3,-3 -5,-3 -5,0 -8,4 -9,12l-11 -2c0,-7 2,-13 6,-17 3,-3 8,-5 14,-5 7,0 11,2 15,6 3,5 5,9 5,15 0,3 -1,6 -2,9 -1,3 -2,6 -4,8 -1,3 -4,7 -8,12 -4,4 -6,7 -7,8 -1,1 -2,3 -3,4l24 0zm48 -43l-12 1c0,-5 -3,-8 -7,-8 -2,0 -4,1 -6,4 -2,3 -3,9 -3,17 1,-2 3,-4 5,-5 2,-1 3,-1 6,-1 5,0 9,2 12,6 4,5 6,11 6,18 0,8 -2,14 -6,19 -4,4 -8,7 -14,7 -6,0 -11,-3 -15,-9 -4,-6 -6,-16 -6,-29 0,-14 2,-24 6,-30 4,-6 9,-9 16,-9 5,0 8,2 12,5 3,3 5,7 6,14zm-27 31c0,5 1,8 2,11 2,3 4,4 6,4 3,0 4,-1 6,-3 1,-2 2,-6 2,-11 0,-4 -1,-8 -2,-10 -2,-3 -4,-4 -6,-4 -2,0 -4,1 -6,4 -1,2 -2,5 -2,9zm35 8l11 -2c1,6 3,9 7,9 2,0 5,-2 6,-4 2,-3 3,-9 3,-17 -1,2 -3,3 -5,4 -1,2 -3,2 -6,2 -4,0 -9,-2 -12,-7 -4,-4 -6,-10 -6,-17 0,-8 2,-15 6,-19 4,-5 9,-7 14,-7 6,0 12,3 16,9 4,6 6,15 6,29 0,14 -2,24 -7,30 -4,6 -9,9 -16,9 -5,0 -8,-2 -12,-5 -3,-3 -4,-8 -5,-14zm26 -31c0,-5 0,-9 -2,-11 -2,-3 -4,-4 -6,-4 -3,0 -4,1 -6,3 -1,2 -2,6 -2,10 0,5 1,9 2,11 2,2 4,3 6,3 3,0 4,-1 6,-3 2,-2 2,-5 2,-9zm21 -12l0 -14 41 0 0 11c-4,4 -7,9 -10,17 -4,7 -6,15 -8,24 -2,8 -3,16 -3,22l-11 0c0,-10 2,-21 5,-31 3,-11 8,-21 13,-29l-27 0zm78 60l-11 0 0 -54c-5,5 -10,9 -16,11l0 -13c4,-1 7,-4 11,-7 3,-4 6,-8 7,-12l9 0 0 75zm74 0l-29 0 0 -54 26 0c10,0 15,5 15,14 0,7 -2,11 -7,13 6,2 9,6 9,13 0,4 -1,8 -4,10 -3,3 -6,4 -10,4zm-17 -45l0 13 8 0c7,0 10,-2 10,-7 0,-4 -3,-6 -10,-6l-8 0zm0 22l0 14 10 0c6,0 9,-2 9,-7 0,-2 -1,-4 -3,-5 -1,-1 -4,-2 -9,-2l-7 0zm40 -38l0 -14 12 0 0 14 -12 0zm0 61l0 -54 12 0 0 54 -12 0zm66 -12l5 0 0 27 -9 0 0 -15 -34 0 0 15 -10 0 0 -27 5 0c5,-6 7,-20 7,-42l36 0 0 42zm-32 0l20 0 0 -30 -14 0c0,14 -2,24 -6,30zm125 -28c-3,-2 -5,-4 -7,-6 -1,-3 -2,-6 -2,-10 0,-6 2,-10 5,-14 3,-3 8,-5 14,-5 5,0 10,2 13,6 3,3 5,8 5,13 0,4 -1,7 -2,10 -2,2 -4,4 -7,6 4,2 7,4 8,7 2,3 3,7 3,11 0,5 -1,9 -3,13 -1,3 -4,6 -7,8 -3,2 -6,3 -10,3 -6,0 -11,-2 -15,-6 -4,-5 -6,-10 -6,-17 0,-5 1,-8 3,-12 2,-3 4,-5 8,-7zm2 -15c0,3 1,6 2,7 2,2 3,2 5,2 3,0 4,0 6,-2 1,-1 2,-4 2,-7 0,-2 -1,-5 -2,-6 -2,-2 -3,-2 -5,-2 -3,0 -4,0 -6,2 -1,1 -2,4 -2,6zm-1 33c0,4 1,7 3,9 1,2 3,3 6,3 2,0 4,-1 6,-3 1,-2 2,-5 2,-9 0,-4 -1,-7 -2,-9 -2,-2 -4,-3 -6,-3 -3,0 -5,1 -7,3 -1,2 -2,5 -2,9zm39 22l0 -14 12 0 0 14 -12 0zm41 -75c6,0 11,3 15,9 3,5 5,15 5,29 0,15 -2,25 -5,30 -4,6 -9,9 -15,9 -6,0 -10,-3 -14,-9 -4,-5 -6,-15 -6,-30 0,-14 2,-24 6,-29 4,-6 8,-9 14,-9zm0 12c-2,0 -4,2 -5,5 -2,3 -2,10 -2,21 0,12 0,19 2,22 1,3 3,5 5,5 3,0 4,-2 6,-5 1,-3 2,-10 2,-22 0,-11 -1,-18 -2,-21 -2,-3 -3,-5 -6,-5zm51 63l0 -15 -25 0 0 -12 27 -48 10 0 0 48 7 0 0 12 -7 0 0 15 -12 0zm0 -27l0 -26 -14 26 14 0zm27 27l0 -14 12 0 0 14 -12 0zm62 -13l0 13 -41 0c0,-5 1,-9 4,-14 2,-5 6,-10 13,-18 5,-6 8,-10 9,-12 2,-3 3,-6 3,-9 0,-3 -1,-6 -2,-7 -2,-2 -4,-3 -6,-3 -5,0 -8,4 -8,12l-12 -2c1,-7 3,-13 6,-17 4,-3 9,-5 14,-5 7,0 12,2 15,6 3,5 5,9 5,15 0,3 0,6 -1,9 -1,3 -2,6 -4,8 -2,3 -5,7 -9,12 -4,4 -6,7 -7,8 -1,1 -2,3 -3,4l24 0zm28 -62c6,0 11,3 14,9 4,5 6,15 6,29 0,15 -2,25 -6,30 -3,6 -8,9 -14,9 -6,0 -11,-3 -15,-9 -3,-5 -5,-15 -5,-30 0,-14 2,-24 5,-29 4,-6 9,-9 15,-9zm0 12c-2,0 -4,2 -6,5 -1,3 -2,10 -2,21 0,12 1,19 2,22 2,3 4,5 6,5 2,0 4,-2 5,-5 2,-3 3,-10 3,-22 0,-11 -1,-18 -3,-21 -1,-3 -3,-5 -5,-5zm58 63l-12 0 0 -54c-4,5 -9,9 -15,11l0 -13c3,-1 7,-4 10,-7 4,-4 6,-8 7,-12l10 0 0 75zm38 -75c6,0 10,3 14,9 4,5 6,15 6,29 0,15 -2,25 -6,30 -4,6 -8,9 -14,9 -6,0 -11,-3 -15,-9 -3,-5 -5,-15 -5,-30 0,-14 2,-24 5,-29 4,-6 9,-9 15,-9zm0 12c-3,0 -4,2 -6,5 -1,3 -2,10 -2,21 0,12 1,19 2,22 2,3 3,5 6,5 2,0 4,-2 5,-5 2,-3 2,-10 2,-22 0,-11 0,-18 -2,-21 -1,-3 -3,-5 -5,-5zm30 9l11 0 0 8c1,-3 3,-5 6,-7 2,-1 5,-2 8,-2 5,0 9,2 13,7 4,5 5,12 5,21 0,9 -1,16 -5,21 -4,5 -8,8 -13,8 -3,0 -5,-1 -7,-2 -2,-1 -4,-3 -6,-6l0 27 -12 0 0 -75zm12 26c0,6 0,11 2,14 2,3 5,4 8,4 2,0 5,-1 7,-4 1,-2 2,-7 2,-13 0,-6 -1,-10 -3,-13 -1,-3 -4,-4 -6,-4 -3,0 -6,1 -8,4 -2,3 -2,7 -2,12zm41 28l0 -14 11 0 0 14 -11 0zm-1688 0l0 -75 19 0 11 52 11 -52 19 0 0 75 -12 0 0 -59 -12 59 -12 0 -12 -59 0 59 -12 0zm70 -37c0,-9 1,-16 4,-22 2,-6 6,-10 10,-13 4,-3 10,-4 16,-4 8,0 16,3 21,10 6,7 8,16 8,29 0,12 -2,22 -8,29 -6,7 -13,10 -21,10 -9,0 -16,-3 -21,-10 -6,-7 -9,-16 -9,-29zm13 0c0,8 1,15 4,19 4,5 8,7 13,7 5,0 9,-2 12,-7 3,-4 5,-11 5,-19 0,-9 -2,-16 -5,-20 -3,-4 -7,-6 -12,-6 -5,0 -10,2 -13,6 -3,5 -4,11 -4,20zm74 6l-3 0 0 -11c9,0 13,-4 13,-12 0,-3 0,-5 -2,-7 -2,-2 -4,-3 -7,-3 -5,0 -8,4 -10,10l-12 -4c2,-12 10,-18 22,-18 7,0 12,2 16,5 4,4 6,9 6,15 0,7 -3,12 -10,17 8,3 12,10 12,19 0,7 -2,12 -6,16 -4,4 -10,6 -18,6 -6,0 -11,-2 -15,-4 -3,-3 -6,-8 -8,-15l11 -4c1,4 3,7 5,8 1,2 4,2 7,2 4,0 6,-1 8,-2 2,-2 3,-5 3,-8 0,-3 -1,-6 -3,-7 -2,-2 -5,-3 -9,-3zm53 10l-23 -54 14 0 14 39 13 -39 12 0 -20 57c-3,7 -5,12 -8,15 -2,3 -5,4 -8,4 -4,0 -7,0 -9,-1l0 -11c2,0 4,0 5,0 3,0 5,0 6,-1 1,-2 2,-4 4,-9zm99 -17l-11 3c-1,-6 -4,-9 -8,-9 -3,0 -6,1 -7,4 -2,2 -3,6 -3,12 0,7 1,11 3,14 1,3 4,4 7,4 2,0 4,-1 5,-2 2,-2 3,-5 3,-8l12 2c-2,13 -9,20 -21,20 -7,0 -12,-3 -16,-9 -3,-5 -5,-12 -5,-20 0,-9 2,-16 6,-21 4,-5 9,-7 16,-7 5,0 9,1 12,4 4,3 6,7 7,13zm35 21l12 3c-1,5 -4,9 -7,12 -4,2 -8,4 -12,4 -7,0 -12,-2 -16,-7 -4,-5 -6,-12 -6,-21 0,-10 2,-17 6,-22 4,-5 9,-7 14,-7 7,0 12,2 15,7 5,5 7,13 7,24l0 1 -30 0c0,5 1,8 3,10 2,3 4,4 7,4 4,0 6,-3 7,-8zm1 -14c0,-5 -1,-8 -3,-10 -1,-2 -4,-3 -6,-3 -2,0 -4,1 -6,3 -2,2 -3,5 -3,10l18 0zm21 -23l11 0 0 8c2,-3 3,-5 6,-7 2,-1 5,-2 8,-2 5,0 9,2 13,7 4,5 6,12 6,21 0,9 -2,16 -6,21 -4,5 -8,8 -13,8 -2,0 -5,-1 -7,-2 -2,-1 -4,-3 -6,-6l0 27 -12 0 0 -75zm12 26c0,6 1,11 3,14 2,3 4,4 7,4 3,0 5,-1 7,-4 2,-2 2,-7 2,-13 0,-6 0,-10 -2,-13 -2,-3 -5,-4 -7,-4 -3,0 -6,1 -7,4 -2,3 -3,7 -3,12zm41 -33l0 -14 12 0 0 14 -12 0zm0 61l0 -54 12 0 0 54 -12 0zm38 -54l24 0 0 54 -12 0 0 -22 -2 0c-2,0 -4,0 -5,1 -1,2 -3,4 -4,6l-8 15 -14 0 9 -15c2,-5 4,-7 6,-8 -3,-1 -6,-2 -8,-5 -2,-3 -3,-6 -3,-11 0,-5 2,-9 4,-11 3,-3 7,-4 13,-4zm12 23l0 -14 -9 0c-5,0 -8,2 -8,7 0,5 3,7 9,7l8 0zm753 -44c6,0 10,3 14,9 4,5 6,15 6,29 0,15 -2,25 -6,30 -4,6 -8,9 -14,9 -6,0 -11,-3 -15,-9 -4,-5 -5,-15 -5,-30 0,-14 1,-24 5,-29 4,-6 9,-9 15,-9zm0 12c-3,0 -5,2 -6,5 -1,3 -2,10 -2,21 0,12 1,19 2,22 1,3 3,5 6,5 2,0 4,-2 5,-5 1,-3 2,-10 2,-22 0,-11 -1,-18 -2,-21 -1,-3 -3,-5 -5,-5z"/>
 </g>
</svg>
