<?xml version="1.0" encoding="UTF-8"?>
<!DOCTYPE svg PUBLIC "-//W3C//DTD SVG 1.1//EN" "http://www.w3.org/Graphics/SVG/1.1/DTD/svg11.dtd">
<!-- Creator: CorelDRAW X7 -->
<svg xmlns="http://www.w3.org/2000/svg" xml:space="preserve" width="6.2033mm" height="3.0645mm" version="1.1" style="shape-rendering:geometricPrecision; text-rendering:geometricPrecision; image-rendering:optimizeQuality; fill-rule:evenodd; clip-rule:evenodd"
viewBox="0 0 1883 930"
 xmlns:xlink="http://www.w3.org/1999/xlink">
 <defs>
  <style type="text/css">
   <![CDATA[
    .str0 {stroke:#FEFEFE;stroke-width:60.6977}
    .fil0 {fill:#FEFEFE}
    .fil2 {fill:#1DB7ED;fill-rule:nonzero}
    .fil1 {fill:#6BD333;fill-rule:nonzero}
   ]]>
  </style>
 </defs>
 <g id="Слой_x0020_1">
  <metadata id="CorelCorpID_0Corel-Layer"/>
  <rect class="fil0 str0" x="30" y="30" width="1822" height="869" rx="21" ry="19"/>
  <path class="fil1" d="M888 613c0,24 -5,44 -16,59 -11,16 -27,23 -49,23l-63 0 0 -164 63 0c22,0 38,7 49,23 11,15 16,35 16,59zm-9 -99c-14,-10 -32,-15 -52,-15l-84 0c-4,0 -8,1 -12,5 -3,3 -5,7 -5,11l0 196c0,4 2,8 5,11 3,4 7,5 12,5l84 0c20,0 38,-5 52,-15 15,-10 26,-24 33,-41 8,-17 11,-37 11,-58 0,-21 -3,-40 -11,-57 -7,-18 -18,-32 -33,-42z"/>
  <path class="fil1" d="M663 531c8,0 16,-7 16,-15 0,-11 -8,-17 -16,-17l-134 0c-5,0 -9,2 -12,5 -3,4 -5,7 -5,12l0 195c0,5 2,9 5,12 3,3 7,5 12,5l134 0c10,0 16,-9 16,-16 0,-8 -6,-16 -16,-16l-117 0 0 -69 103 0c7,0 15,-6 15,-16 0,-9 -7,-16 -15,-16l-103 0 0 -64 117 0z"/>
  <path class="fil1" d="M1635 696l-98 0 0 -180c0,-5 -2,-9 -5,-12 -3,-3 -8,-5 -12,-5 -5,0 -9,2 -12,5 -4,3 -5,7 -5,12l0 195c0,5 1,9 4,12 4,3 8,5 12,5l116 0c4,0 8,-2 11,-5 4,-3 5,-6 5,-11 0,-5 -1,-9 -5,-12 -3,-3 -7,-4 -11,-4z"/>
  <path class="fil1" d="M991 499c-5,0 -9,2 -12,5 -4,4 -5,7 -5,12l0 195c0,5 2,9 5,12 3,3 7,5 12,5 5,0 9,-2 12,-5 3,-3 5,-7 5,-12l0 -195c0,-5 -2,-9 -5,-12 -3,-3 -7,-5 -12,-5z"/>
  <path class="fil1" d="M438 499c-9,0 -12,5 -21,14l-70 71 -71 -71c-10,-10 -13,-14 -21,-14 -10,0 -17,9 -17,17l0 195c0,8 7,17 17,17 11,0 18,-9 18,-17l0 -154 52 53c11,11 16,13 22,13 6,0 10,-2 21,-13l53 -53 0 154c0,8 6,17 17,17 10,0 17,-9 17,-17l0 -195c0,-9 -8,-17 -17,-17z"/>
  <path class="fil1" d="M1131 539c13,-7 27,-10 43,-10 15,0 29,4 43,11 2,2 5,3 8,3 6,0 17,-5 17,-17 0,-6 -4,-11 -9,-14 -18,-11 -38,-16 -59,-16 -22,0 -42,5 -60,15 -17,10 -31,24 -42,42 -10,18 -15,38 -15,59 0,24 6,45 16,63 11,18 25,31 43,41 17,9 37,14 58,14 10,0 20,-2 31,-4 10,-3 20,-7 28,-12 2,-1 9,-5 9,-14 0,-12 -11,-17 -17,-17 -4,0 -6,1 -8,3l-1 0c-12,8 -27,11 -42,11 -16,0 -29,-3 -42,-10 -12,-6 -22,-16 -29,-29 -7,-12 -10,-28 -10,-46 0,-16 3,-31 10,-43 7,-13 16,-23 28,-30z"/>
  <path class="fil1" d="M1405 642l-76 0 38 -88 38 88zm-21 -134c-2,-5 -8,-10 -17,-10 -8,0 -15,5 -17,10l-86 197c-2,4 -2,9 0,13 2,4 5,8 9,10 2,1 5,1 7,1 7,0 13,-5 15,-10l21 -46 103 0 20 46c2,5 8,10 15,10 3,0 5,0 7,-1 5,-3 8,-7 9,-10 2,-4 2,-9 0,-13l-86 -197z"/>
  <path class="fil2" d="M929 216l-138 0c-4,0 -8,1 -11,4 -3,4 -5,8 -5,12l0 195c0,8 7,17 17,17 10,0 17,-9 17,-17l0 -83 106 0c6,0 15,-5 15,-16 0,-11 -9,-16 -15,-16l-106 0 0 -65 120 0c8,0 16,-6 16,-15 0,-11 -9,-16 -16,-16z"/>
  <path class="fil2" d="M1043 256c11,-7 24,-11 39,-11 14,0 27,4 38,11 12,7 21,18 27,30 6,13 10,28 10,44 0,16 -4,30 -10,43 -6,13 -15,23 -27,30 -11,8 -24,11 -38,11 -15,0 -28,-3 -39,-11 -12,-7 -20,-17 -27,-30 -6,-13 -9,-27 -9,-43 0,-16 3,-31 9,-44 7,-13 16,-23 27,-30zm96 176c16,-11 29,-25 39,-43 9,-17 14,-37 14,-59 0,-22 -5,-42 -14,-60 -10,-18 -23,-32 -39,-42 -17,-10 -36,-16 -57,-16 -21,0 -40,6 -57,16 -17,10 -30,24 -39,42 -10,18 -15,38 -15,60 0,22 5,42 15,59 9,18 22,33 39,43 17,10 36,15 57,15 21,0 40,-5 57,-15z"/>
  <path class="fil2" d="M1630 330c0,24 -5,44 -16,59 -11,15 -27,23 -48,23l-63 0 0 -165 63 0c21,0 37,8 48,24 11,15 16,35 16,59zm24 -58c-7,-17 -18,-31 -33,-41 -14,-10 -32,-15 -52,-15l-84 0c-4,0 -8,1 -12,4 -3,4 -4,8 -4,12l0 195c0,5 1,9 4,12 4,3 8,5 12,5l84 0c20,0 38,-5 52,-15 15,-10 26,-24 33,-41 8,-18 12,-37 12,-58 0,-21 -4,-40 -12,-58z"/>
  <path class="fil2" d="M1274 327l0 -80 78 0c28,0 36,23 36,36 0,27 -17,44 -44,44l-70 0zm0 100l0 -71 33 0 82 82c2,2 7,5 12,5 4,0 9,-2 12,-5 7,-8 6,-18 0,-24l-59 -59c67,-3 69,-65 69,-72 0,-42 -33,-67 -65,-67l-102 0c-4,0 -8,1 -11,4 -3,4 -5,8 -5,12l0 195c0,8 7,17 17,17 10,0 17,-9 17,-17z"/>
  <path class="fil2" d="M634 330l85 -85c4,-4 7,-15 -1,-23 -4,-4 -8,-5 -11,-5 -5,0 -9,2 -12,5l-85 84 -84 -84c-2,-3 -7,-5 -12,-5 -4,0 -8,2 -12,5 -7,7 -6,18 0,23l85 85 -85 84c-5,5 -8,16 0,24 4,4 9,5 12,5 5,0 9,-2 12,-5l84 -84 85 84c2,2 6,5 12,5 4,0 8,-2 11,-5 8,-8 6,-18 1,-24l-85 -84z"/>
  <path class="fil2" d="M437 330l-90 90 -90 -90 90 -90 90 90zm-74 -123c-5,-4 -10,-7 -16,-7 -7,0 -12,3 -17,7l-105 105c-2,2 -8,8 -8,18 0,8 4,14 7,16l105 105c2,3 8,8 17,8 10,0 16,-6 17,-7 32,-31 106,-106 107,-106 4,-5 6,-10 6,-16 0,-8 -4,-13 -7,-17 0,0 -74,-74 -106,-106z"/>
 </g>
</svg>
