<?xml version="1.0" encoding="UTF-8"?>
<!DOCTYPE svg PUBLIC "-//W3C//DTD SVG 1.1//EN" "http://www.w3.org/Graphics/SVG/1.1/DTD/svg11.dtd">
<!-- Creator: CorelDRAW X7 -->
<svg xmlns="http://www.w3.org/2000/svg" xml:space="preserve" width="3.5757mm" height="1.2196mm" version="1.1" style="shape-rendering:geometricPrecision; text-rendering:geometricPrecision; image-rendering:optimizeQuality; fill-rule:evenodd; clip-rule:evenodd"
viewBox="0 0 122 42"
 xmlns:xlink="http://www.w3.org/1999/xlink">
 <defs>
  <style type="text/css">
   <![CDATA[
    .fil0 {fill:white;fill-rule:nonzero}
   ]]>
  </style>
 </defs>
 <g id="Слой_x0020_1">
  <metadata id="CorelCorpID_0Corel-Layer"/>
  <g id="_887665872">
   <path class="fil0" d="M60 8l-6 5c0,0 0,0 0,0 0,1 0,1 0,1 1,0 1,0 1,0 0,0 1,0 1,0l5 -5 5 5c0,0 0,0 1,0 0,0 0,0 0,0 1,0 1,0 1,-1 0,0 0,0 -1,0l-5 -5 5 -5c1,-1 1,-1 1,-1 0,0 0,-1 -1,-1 0,0 0,0 0,0 -1,0 -1,0 -1,0l-5 5 -5 -5c0,0 -1,0 -1,0 0,0 0,0 -1,0 0,0 0,1 0,1 0,0 0,0 0,1l6 5z"/>
   <path class="fil0" d="M114 2l5 6 -5 5 -5 -5 5 -6zm-7 5c0,0 0,0 0,1 0,0 0,0 0,0 0,0 0,0 0,0l6 7c1,1 2,0 2,0l6 -7c1,0 1,0 1,0 0,0 0,0 0,0 0,-1 0,-1 0,-1 0,0 0,0 -1,0l-6 -7c0,0 0,0 0,0l0 0c0,0 -1,0 -1,0 0,0 0,0 -1,0l0 0 0 0 -6 7c0,0 0,0 0,0z"/>
   <path class="fil0" d="M8 2l5 6 -5 5 -6 -5 6 -6zm-8 5c0,0 0,0 0,1 0,0 0,0 0,0 0,0 0,0 0,0l7 7c1,1 1,0 1,0l7 -7c0,0 0,0 0,0 0,0 0,0 0,0 0,-1 0,-1 0,-1 0,0 0,0 0,0l-7 -7c0,0 0,0 0,0l0 0 0 0c0,0 0,0 0,0 -1,0 -1,0 -1,0l0 0 0 0 -7 7c0,0 0,0 0,0z"/>
   <path class="fil0" d="M91 8c0,-1 0,-2 0,-2l-6 -5c0,0 0,0 0,0 0,0 -1,0 -1,0 0,0 0,1 0,1 0,0 0,0 0,1l5 5 -5 5c0,0 0,0 0,0 0,1 0,1 0,1 0,0 1,0 1,0 0,0 0,0 0,0l6 -5c0,0 0,-1 0,-1z"/>
   <path class="fil0" d="M38 8c0,-1 -1,-2 -1,-2l-5 -5c0,0 0,0 0,0 -1,0 -1,0 -1,0 0,0 0,1 0,1 0,0 0,0 0,1l5 5 -5 5c0,0 0,0 0,0 0,1 0,1 0,1 0,0 0,0 1,0 0,0 0,0 0,0l5 -5c0,0 1,-1 1,-1z"/>
   <path class="fil0" d="M113 34l-5 5c-1,0 -1,0 -1,1 0,0 1,0 1,0 0,1 0,1 0,1 1,0 1,0 1,-1l5 -5 5 5c0,1 1,1 1,1 0,0 0,0 1,-1 0,0 0,0 0,0 0,-1 0,-1 0,-1l-5 -5 5 -5c0,0 0,-1 0,-1 0,0 0,0 0,-1 -1,0 -1,0 -1,0 0,0 -1,0 -1,0l-5 6 -5 -6c0,0 0,0 -1,0 0,0 0,0 0,0 0,1 -1,1 -1,1 0,0 0,1 1,1l5 5z"/>
   <path class="fil0" d="M6 34l-5 5c0,0 0,0 0,1 0,0 0,0 0,0 0,1 1,1 1,1 0,0 0,0 1,-1l5 -5 5 5c0,1 0,1 0,1 1,0 1,0 1,-1 0,0 0,0 0,0 0,-1 0,-1 0,-1l-5 -5 5 -5c0,0 0,-1 0,-1 0,0 0,0 0,-1 0,0 0,0 -1,0 0,0 0,0 0,0l-5 6 -5 -6c-1,0 -1,0 -1,0 0,0 -1,0 -1,0 0,1 0,1 0,1 0,0 0,1 0,1l5 5z"/>
   <path class="fil0" d="M61 29l5 5 -5 5 -5 -5 5 -5zm-8 4c0,1 0,1 0,1 0,0 0,0 0,0 0,1 0,1 1,1l6 6c1,1 2,0 2,0l6 -6c0,0 0,0 0,0 0,-1 1,-1 1,-1 0,0 -1,-1 -1,-1 0,0 0,0 0,0l-6 -6c0,0 0,0 0,0l0 0 0 0c-1,-1 -1,-1 -1,-1 0,0 -1,0 -1,1l0 0 0 0 -6 6c-1,0 -1,0 -1,0z"/>
   <path class="fil0" d="M84 34c0,1 1,1 1,1l5 5c0,1 0,1 0,1 1,0 1,0 1,-1 0,0 0,0 0,0 0,-1 0,-1 0,-1l-5 -5 5 -5c0,0 0,-1 0,-1 0,0 0,0 0,-1 0,0 0,0 -1,0 0,0 0,0 0,0l-5 6c0,0 -1,0 -1,1z"/>
   <path class="fil0" d="M31 34c0,1 0,1 0,1l5 5c1,1 1,1 1,1 0,0 1,0 1,-1 0,0 0,0 0,0 0,-1 0,-1 0,-1l-5 -5 5 -5c0,0 0,-1 0,-1 0,0 0,0 0,-1 0,0 -1,0 -1,0 0,0 0,0 -1,0l-5 6c0,0 0,0 0,1z"/>
  </g>
 </g>
</svg>
