<?xml version="1.0" encoding="UTF-8"?>
<!DOCTYPE svg PUBLIC "-//W3C//DTD SVG 1.1//EN" "http://www.w3.org/Graphics/SVG/1.1/DTD/svg11.dtd">
<!-- Creator: CorelDRAW X7 -->
<svg xmlns="http://www.w3.org/2000/svg" xml:space="preserve" width="2.6298mm" height="2.55mm" version="1.1" style="shape-rendering:geometricPrecision; text-rendering:geometricPrecision; image-rendering:optimizeQuality; fill-rule:evenodd; clip-rule:evenodd"
viewBox="0 0 151 147"
 xmlns:xlink="http://www.w3.org/1999/xlink">
 <defs>
  <style type="text/css">
   <![CDATA[
    .fil0 {fill:#FEFEFE;fill-rule:nonzero}
   ]]>
  </style>
 </defs>
 <g id="Слой_x0020_1">
  <metadata id="CorelCorpID_0Corel-Layer"/>
  <path class="fil0" d="M0 40c2,-9 6,-19 12,-28 5,3 9,7 13,10 7,7 12,15 16,25l-1 2c-7,6 0,19 21,38 21,20 34,27 41,20l1 -1c11,3 19,7 26,14 4,4 7,8 10,13 -8,6 -17,11 -27,14 -12,-5 -23,-11 -34,-18 -10,-8 -21,-16 -31,-26 -10,-10 -19,-20 -27,-30 -8,-11 -15,-22 -20,-33zm15 -31l3 -3c4,-4 8,-6 11,-6 3,0 8,2 12,7 14,13 16,24 6,34l-3 3c-3,-10 -8,-18 -15,-25 -5,-4 -9,-7 -14,-10zm92 93l2 -2c5,-6 11,-8 16,-8 5,1 12,4 19,11 5,5 7,9 7,12 1,3 -2,7 -6,12l-3 3c-3,-6 -6,-11 -10,-14 -7,-7 -15,-11 -25,-14z"/>
 </g>
</svg>
