<?xml version="1.0" encoding="UTF-8"?>
<!DOCTYPE svg PUBLIC "-//W3C//DTD SVG 1.1//EN" "http://www.w3.org/Graphics/SVG/1.1/DTD/svg11.dtd">
<!-- Creator: CorelDRAW X7 -->
<svg xmlns="http://www.w3.org/2000/svg" xml:space="preserve" width="14.2367mm" height="6.0331mm" version="1.1" style="shape-rendering:geometricPrecision; text-rendering:geometricPrecision; image-rendering:optimizeQuality; fill-rule:evenodd; clip-rule:evenodd"
viewBox="0 0 2036 863"
 xmlns:xlink="http://www.w3.org/1999/xlink">
 <defs>
  <style type="text/css">
   <![CDATA[
    .fil0 {fill:#FEFEFE;fill-rule:nonzero}
   ]]>
  </style>
 </defs>
 <g id="Слой_x0020_1">
  <metadata id="CorelCorpID_0Corel-Layer"/>
  <path class="fil0" d="M77 78l-7 22c-3,-21 -7,-37 -12,-48 -5,-10 -10,-16 -16,-16 -6,0 -12,7 -17,21 -5,15 -9,34 -12,58 -3,24 -5,51 -5,80 0,46 4,83 10,114 7,30 15,45 25,45 11,0 20,-20 27,-61l7 22c-4,24 -9,42 -15,55 -6,13 -12,19 -20,19 -13,0 -24,-21 -32,-65 -7,-36 -10,-80 -10,-132 0,-54 4,-99 12,-136 8,-37 18,-56 30,-56 8,0 14,7 20,20 6,14 11,33 15,58zm64 -69l36 371 -8 0 -12 -122 -34 0 -12 122 -9 0 37 -371 2 0zm-1 78l-14 135 27 0 -13 -135zm62 293l11 -371 2 0 32 304 31 -304 2 0 11 371 -8 0 -8 -265 -27 265 -2 0 -28 -267 -8 267 -8 0zm158 -380c12,0 22,19 30,56 8,38 12,84 12,138 0,55 -4,101 -12,138 -8,38 -18,57 -30,57 -11,0 -21,-19 -29,-56 -8,-38 -12,-83 -12,-137 0,-35 2,-68 5,-99 4,-30 9,-54 15,-71 7,-17 13,-26 21,-26zm0 36c-6,0 -11,7 -16,22 -6,14 -10,33 -13,57 -2,24 -4,51 -4,81 0,44 3,81 10,112 6,30 14,45 23,45 6,0 12,-7 17,-21 5,-14 9,-33 12,-57 3,-24 4,-51 4,-81 0,-29 -1,-56 -4,-79 -3,-24 -7,-43 -12,-57 -5,-15 -11,-22 -17,-22zm137 344l-8 0 -26 -287 -27 287 -8 0 34 -371 2 0 33 371zm29 -371l7 0 0 371 -7 0 0 -371zm42 0l8 0 0 139 31 -139 11 0 -38 166 41 205 -11 0 -34 -173 0 173 -8 0 0 -371zm75 1l8 0 24 252 22 -253 8 0 -29 333c-3,31 -8,47 -15,47 -3,0 -6,-3 -8,-8 -3,-6 -6,-18 -10,-39l6 -22c4,18 7,29 8,31 1,3 2,4 4,4 2,0 4,-2 5,-8 2,-5 3,-18 5,-39l-28 -298zm93 -1l15 0c6,0 11,4 14,11 4,7 6,17 8,32 2,14 3,30 3,48 0,16 -1,31 -2,45 -2,13 -5,24 -8,33 4,6 7,14 10,23 2,9 3,19 5,32 1,12 2,26 2,40 0,30 -3,55 -7,76 -5,21 -11,31 -19,31l-21 0 0 -371zm7 36l0 119 5 0c5,0 9,-2 12,-7 2,-5 4,-12 6,-23 1,-10 2,-22 2,-34 0,-17 -1,-30 -4,-40 -2,-10 -6,-15 -12,-15l-9 0zm0 156l0 143 10 0c6,0 10,-3 13,-8 2,-6 4,-14 6,-25 2,-11 2,-24 2,-37 0,-16 -1,-31 -3,-43 -2,-12 -5,-21 -9,-25 -3,-3 -8,-5 -14,-5l-5 0zm103 -192l37 371 -8 0 -13 -122 -34 0 -12 122 -8 0 37 -371 1 0zm0 78l-14 135 27 0 -13 -135zm65 -78l8 0 0 156 40 0 0 -156 8 0 0 371 -8 0 0 -179 -40 0 0 179 -8 0 0 -371zm91 0l8 0 0 156 40 0 0 -156 8 0 0 371 -8 0 0 -179 -40 0 0 179 -8 0 0 -371zm136 0l-16 0c-9,0 -14,2 -18,5 -4,5 -8,16 -11,33 -3,16 -4,37 -4,61 0,20 1,38 3,53 2,15 5,27 8,35 4,7 9,11 16,11l-28 173 9 0 28 -173 5 0 0 173 8 0 0 -371zm-8 36l0 126 -14 1c-5,0 -9,-2 -11,-7 -3,-5 -5,-12 -6,-23 -1,-10 -2,-22 -2,-34 0,-13 1,-24 2,-34 1,-10 3,-18 6,-22 2,-4 6,-7 11,-7l14 0zm116 335l10 -371 2 0 32 304 32 -304 1 0 11 371 -8 0 -7 -265 -28 265 -2 0 -28 -267 -8 267 -7 0zm157 -380c12,0 22,19 30,56 8,38 12,84 12,138 0,55 -4,101 -12,138 -8,38 -18,57 -29,57 -12,0 -22,-19 -30,-56 -8,-38 -12,-83 -12,-137 0,-35 2,-68 6,-99 3,-30 8,-54 15,-71 6,-17 13,-26 20,-26zm0 36c-6,0 -11,7 -16,22 -5,14 -9,33 -12,57 -3,24 -5,51 -5,81 0,44 3,81 10,112 6,30 14,45 23,45 6,0 12,-7 17,-21 5,-14 9,-33 12,-57 3,-24 5,-51 5,-81 0,-29 -2,-56 -5,-79 -3,-24 -7,-43 -12,-57 -5,-15 -11,-22 -17,-22zm119 172l0 172 -8 0 0 -172 -2 -10 -32 182 -10 0 37 -206 -35 -165 11 0 31 157 0 -157 8 0 0 157 32 -157 10 0 -34 165 37 206 -10 0 -32 -182 -3 10zm73 -199l45 0 0 36 -37 0 0 117 37 0 0 36 -37 0 0 146 37 0 0 36 -45 0 0 -371zm151 371l0 -371 39 0 0 36 -32 0 0 119 4 0c10,0 17,4 21,12 5,9 8,21 11,39 2,17 3,37 3,59 0,28 -2,53 -6,74 -5,21 -11,32 -19,32l-21 0zm7 -179l0 143 10 0c6,0 10,-3 13,-8 2,-6 4,-14 6,-25 1,-11 2,-23 2,-37 0,-17 -1,-31 -3,-43 -2,-12 -5,-20 -8,-24 -4,-4 -9,-6 -15,-6l-5 0zm66 -191l8 0 24 252 22 -253 8 0 -29 333c-3,31 -8,47 -15,47 -3,0 -6,-3 -8,-8 -3,-6 -6,-18 -10,-39l6 -22c4,18 6,29 8,31 1,3 2,4 4,4 2,0 4,-2 5,-8 2,-5 3,-18 5,-39l-28 -298zm85 35l0 -36 42 0 0 36 -17 0 0 335 -8 0 0 -335 -17 0zm132 335l-8 0 0 -285 -52 285 -2 0 0 -371 8 0 0 289 52 -289 2 0 0 371zm-2025 392l34 0 0 -335 8 0 0 335 34 0 0 -335 8 0 0 371 -92 0 0 -371 8 0 0 335zm103 -335l8 0 0 139 31 -139 10 0 -37 166 40 205 -10 0 -34 -174 0 174 -8 0 0 -371zm63 0l8 0 0 371 -8 0 0 -371zm26 426l-8 0 0 -90 6 0 31 -336 3 0 32 336 6 0 0 90 -8 0 0 -55 -62 0 0 55zm7 -90l48 0 -25 -259 -23 259zm138 35l-9 0 -26 -287 -26 287 -9 0 34 -371 2 0 34 371zm75 0l-9 0 0 -285 -51 285 -2 0 0 -371 8 0 0 289 52 -289 2 0 0 371zm19 -371l15 0c6,0 11,3 15,10 3,7 6,18 7,33 2,14 3,30 3,48 0,16 0,31 -2,45 -2,13 -4,24 -8,32 4,7 8,15 10,23 2,9 4,20 5,32 1,13 2,27 2,41 0,30 -3,55 -7,76 -5,20 -11,31 -19,31l-21 0 0 -371zm7 36l0 119 5 0c5,0 9,-3 12,-7 3,-5 5,-13 6,-23 2,-10 2,-22 2,-34 0,-17 -1,-31 -3,-40 -3,-10 -7,-15 -12,-15l-10 0zm0 156l0 142 10 0c6,0 10,-2 13,-8 2,-5 5,-13 6,-24 2,-12 3,-24 3,-37 0,-17 -2,-31 -4,-43 -2,-13 -5,-21 -9,-25 -3,-3 -7,-5 -14,-5l-5 0zm117 179l-8 0 0 -285 -52 285 -2 0 0 -371 8 0 0 289 52 -289 2 0 0 371zm16 0l10 -371 2 0 32 304 32 -304 1 0 11 371 -8 0 -7 -266 -28 266 -2 0 -28 -268 -8 268 -7 0zm133 55l-7 0 0 -90 6 0 31 -336 2 0 33 336 6 0 0 90 -8 0 0 -55 -63 0 0 55zm8 -90l47 0 -24 -259 -23 259zm137 35l-8 0 -26 -287 -26 287 -9 0 34 -371 2 0 33 371zm58 -371l-16 0c-8,0 -14,2 -17,5 -5,5 -9,16 -12,32 -3,17 -4,37 -4,61 0,21 1,38 3,54 2,15 5,26 9,34 3,8 9,12 15,12l-28 173 10 0 28 -173 4 0 0 173 8 0 0 -371zm-8 36l0 126 -13 1c-6,0 -9,-3 -12,-8 -2,-4 -4,-12 -6,-22 -1,-10 -2,-22 -2,-35 0,-12 1,-23 2,-34 2,-10 4,-17 6,-21 2,-5 6,-7 11,-7l14 0zm58 -36l15 0c6,0 11,3 15,10 3,7 5,18 7,33 2,14 3,30 3,48 0,16 -1,31 -2,45 -2,13 -4,24 -8,32 4,7 8,15 10,23 2,9 4,20 5,32 1,13 2,27 2,41 0,30 -3,55 -7,76 -5,20 -11,31 -19,31l-21 0 0 -371zm7 36l0 119 5 0c5,0 9,-3 12,-7 2,-5 5,-13 6,-23 2,-10 2,-22 2,-34 0,-17 -1,-31 -4,-40 -2,-10 -6,-15 -12,-15l-9 0zm0 156l0 142 10 0c6,0 10,-2 13,-8 2,-5 5,-13 6,-24 2,-12 3,-24 3,-37 0,-17 -2,-31 -4,-43 -2,-13 -5,-21 -9,-25 -3,-3 -8,-5 -14,-5l-5 0zm87 -192l37 371 -9 0 -12 -122 -34 0 -12 122 -9 0 37 -371 2 0zm-1 78l-13 135 27 0 -14 -135zm58 257l33 0 0 -335 8 0 0 335 34 0 0 -335 8 0 0 371 -91 0 0 -371 8 0 0 335zm139 -344c12,0 22,18 30,56 8,37 12,83 12,138 0,54 -4,100 -12,138 -8,38 -18,57 -29,57 -12,0 -22,-19 -30,-57 -8,-37 -12,-83 -12,-136 0,-36 2,-69 6,-99 4,-30 8,-54 15,-72 6,-17 13,-25 20,-25zm0 36c-5,0 -11,7 -16,21 -5,15 -9,34 -12,58 -3,24 -5,51 -5,81 0,44 4,81 10,111 7,31 14,46 23,46 7,0 12,-7 17,-21 6,-14 10,-33 12,-57 3,-25 5,-51 5,-81 0,-29 -2,-56 -5,-80 -2,-23 -7,-42 -12,-57 -5,-14 -11,-21 -17,-21zm65 344l-7 0 0 -371 39 0 0 36 -32 0 0 335zm80 -380c12,0 22,18 30,56 8,37 12,83 12,138 0,54 -4,100 -12,138 -8,38 -18,57 -29,57 -12,0 -21,-19 -29,-57 -8,-37 -12,-83 -12,-136 0,-36 1,-69 5,-99 4,-30 9,-54 15,-72 6,-17 13,-25 20,-25zm1 36c-6,0 -12,7 -17,21 -5,15 -9,34 -12,58 -3,24 -4,51 -4,81 0,44 3,81 9,111 7,31 15,46 24,46 6,0 11,-7 17,-21 5,-14 9,-33 12,-57 3,-25 4,-51 4,-81 0,-29 -1,-56 -4,-80 -3,-23 -7,-42 -13,-57 -5,-14 -10,-21 -16,-21zm89 9c5,-30 12,-45 20,-45 7,0 12,8 16,26 4,17 6,40 6,68 0,39 -4,68 -11,85 10,15 15,48 15,98 0,34 -2,61 -7,81 -5,21 -11,31 -19,31 -6,0 -10,-6 -15,-17 -4,-11 -8,-30 -11,-58l6 -16c3,25 7,41 10,48 3,7 7,11 10,11 5,0 9,-7 13,-21 3,-13 5,-33 5,-60 0,-13 -1,-26 -2,-36 -1,-10 -3,-19 -5,-25 -2,-6 -4,-10 -6,-12 -2,-2 -5,-3 -10,-3l-1 0 0 -32 2 0c12,0 18,-22 18,-67 0,-20 -1,-37 -4,-49 -3,-12 -6,-18 -10,-18 -5,0 -10,11 -15,34l-5 -23zm61 390l-7 0 0 -90 6 0 31 -336 2 0 33 336 6 0 0 90 -8 0 0 -55 -63 0 0 55zm8 -90l47 0 -24 -259 -23 259zm111 -345c12,0 22,18 30,56 8,37 12,83 12,138 0,54 -4,100 -12,138 -8,38 -18,57 -29,57 -12,0 -21,-19 -29,-57 -8,-37 -12,-83 -12,-136 0,-36 1,-69 5,-99 4,-30 9,-54 15,-72 6,-17 13,-25 20,-25zm1 36c-6,0 -12,7 -17,21 -5,15 -9,34 -12,58 -3,24 -4,51 -4,81 0,44 3,81 9,111 7,31 15,46 24,46 6,0 11,-7 17,-21 5,-14 9,-33 12,-57 3,-25 4,-51 4,-81 0,-29 -1,-56 -4,-80 -3,-23 -7,-42 -13,-57 -5,-14 -10,-21 -16,-21zm57 -27l15 0c9,0 15,2 19,5 4,6 8,16 11,33 2,16 4,36 4,61 0,24 -2,45 -4,61 -3,16 -7,27 -12,32 -3,4 -10,6 -20,6l-5 0 0 173 -8 0 0 -371zm8 36l0 126 13 1c5,0 9,-3 12,-7 2,-5 4,-12 6,-23 1,-10 2,-21 2,-34 0,-13 -1,-24 -2,-34 -2,-11 -4,-18 -6,-22 -2,-5 -6,-7 -11,-7l-14 0zm94 -45c12,0 22,18 30,56 8,37 12,83 12,138 0,54 -4,100 -12,138 -8,38 -18,57 -30,57 -11,0 -21,-19 -29,-57 -8,-37 -12,-83 -12,-136 0,-36 2,-69 5,-99 4,-30 9,-54 15,-72 7,-17 13,-25 21,-25zm0 36c-6,0 -11,7 -16,21 -6,15 -10,34 -13,58 -2,24 -4,51 -4,81 0,44 3,81 10,111 6,31 14,46 23,46 6,0 12,-7 17,-21 5,-14 9,-33 12,-57 3,-25 4,-51 4,-81 0,-29 -1,-56 -4,-80 -3,-23 -7,-42 -12,-57 -5,-14 -11,-21 -17,-21zm57 -27l16 0c6,0 11,3 14,10 4,7 6,18 8,33 2,14 3,30 3,48 0,16 -1,31 -2,45 -2,13 -5,24 -8,32 4,7 7,15 9,23 3,9 4,20 6,32 1,13 1,27 1,41 0,30 -2,55 -7,76 -4,20 -10,31 -18,31l-22 0 0 -371zm8 36l0 119 5 0c5,0 9,-3 12,-7 2,-5 4,-13 6,-23 1,-10 2,-22 2,-34 0,-17 -1,-31 -4,-40 -2,-10 -6,-15 -12,-15l-9 0zm0 156l0 142 10 0c6,0 10,-2 12,-8 3,-5 5,-13 7,-24 1,-12 2,-24 2,-37 0,-17 -1,-31 -3,-43 -2,-13 -6,-21 -9,-25 -3,-3 -8,-5 -14,-5l-5 0zm64 -63l-4 -11c1,-13 2,-23 2,-30 1,-7 1,-17 1,-28l-4 0 0 -69 9 0 0 43c0,22 0,39 -1,51 0,12 -1,27 -3,44zm74 -129l-16 0c-9,0 -15,2 -18,5 -4,5 -8,16 -11,32 -3,17 -4,37 -4,61 0,21 1,38 3,54 2,15 4,26 8,34 4,8 9,12 16,12l-28 173 9 0 28 -173 5 0 0 173 8 0 0 -371zm-8 36l0 126 -14 1c-5,0 -9,-3 -11,-8 -3,-4 -5,-12 -6,-22 -2,-10 -2,-22 -2,-35 0,-12 0,-23 2,-34 1,-10 3,-17 5,-21 3,-5 7,-7 12,-7l14 0z"/>
 </g>
</svg>
