<?xml version="1.0" encoding="UTF-8"?>
<!DOCTYPE svg PUBLIC "-//W3C//DTD SVG 1.1//EN" "http://www.w3.org/Graphics/SVG/1.1/DTD/svg11.dtd">
<!-- Creator: CorelDRAW X7 -->
<svg xmlns="http://www.w3.org/2000/svg" xml:space="preserve" width="6.2042mm" height="1.7274mm" version="1.1" style="shape-rendering:geometricPrecision; text-rendering:geometricPrecision; image-rendering:optimizeQuality; fill-rule:evenodd; clip-rule:evenodd"
viewBox="0 0 19574 5450"
 xmlns:xlink="http://www.w3.org/1999/xlink">
 <defs>
  <style type="text/css">
   <![CDATA[
    .str0 {stroke:#FEFEFE;stroke-width:630.995}
    .fil0 {fill:#FEFEFE}
    .fil1 {fill:#1DB7ED;fill-rule:nonzero}
   ]]>
  </style>
 </defs>
 <g id="Слой_x0020_1">
  <metadata id="CorelCorpID_0Corel-Layer"/>
  <path class="fil0 str0" d="M533 316l18509 0c119,-1 217,46 217,102l-1 4614c1,56 -97,102 -216,102l-18509 0c-120,0 -217,-46 -217,-103l-1 -4613c1,-56 98,-103 218,-103z"/>
  <path class="fil1" d="M5135 2547c0,138 -10,274 -30,410 -20,135 -55,263 -105,383 -50,119 -120,225 -210,317 -90,93 -205,165 -344,218 -139,52 -308,78 -506,78 -47,0 -101,-1 -165,-5 -63,-4 -115,-10 -156,-18l0 -404c43,11 90,20 139,26 48,6 98,8 148,8 199,0 352,-31 460,-95 109,-63 185,-151 229,-263 44,-113 69,-243 76,-391l-20 0c-31,53 -69,99 -112,141 -43,43 -97,76 -163,100 -67,24 -151,37 -253,37 -136,0 -254,-31 -355,-90 -100,-60 -178,-146 -233,-259 -54,-113 -83,-250 -83,-411 0,-174 33,-323 100,-447 65,-124 159,-219 281,-286 121,-66 265,-100 430,-100 122,0 235,21 341,63 105,42 198,106 277,193 81,86 143,195 187,328 45,132 67,287 67,467zm-862 -646c-98,0 -178,34 -240,101 -62,69 -93,176 -93,321 0,116 27,209 80,277 54,68 134,103 243,103 75,0 140,-17 196,-51 55,-34 98,-76 129,-127 32,-51 46,-104 46,-158 0,-56 -7,-112 -22,-166 -16,-56 -38,-105 -69,-151 -30,-45 -68,-81 -113,-108 -45,-28 -98,-41 -157,-41zm2688 164c0,110 -23,206 -69,286 -45,81 -107,147 -184,198 -78,51 -166,88 -262,113l0 9c191,24 337,83 436,177 99,94 149,219 149,376 0,140 -34,264 -102,374 -68,110 -172,197 -314,261 -141,63 -323,94 -545,94 -132,0 -255,-10 -368,-31 -114,-22 -221,-54 -320,-97l0 -429c102,52 209,92 321,118 112,27 216,40 313,40 180,0 306,-31 379,-94 72,-63 108,-152 108,-265 0,-67 -17,-123 -51,-169 -33,-46 -92,-81 -175,-105 -83,-24 -199,-36 -348,-36l-181 0 0 -386 185 0c146,0 258,-14 335,-43 76,-27 128,-65 156,-114 28,-49 42,-104 42,-167 0,-85 -26,-151 -79,-199 -52,-48 -139,-73 -261,-73 -75,0 -145,10 -207,29 -63,19 -119,42 -169,69 -50,26 -94,52 -132,77l-233 -347c93,-67 202,-124 328,-168 126,-45 275,-67 449,-67 246,0 440,50 584,149 144,99 215,239 215,420zm2449 1852l-504 0 0 -1380c0,-38 1,-85 2,-141 1,-56 3,-114 5,-173 2,-59 5,-113 7,-161 -13,15 -37,39 -73,74 -36,33 -70,64 -102,91l-274 221 -243 -304 768 -611 414 0 0 2384zm1485 -2421c137,0 263,21 379,64 116,42 208,106 278,192 69,86 104,193 104,322 0,96 -19,180 -56,252 -37,72 -88,135 -152,189 -64,54 -137,101 -219,142 85,44 165,97 242,156 76,60 138,129 186,209 48,79 73,172 73,278 0,133 -36,249 -106,346 -71,98 -169,174 -294,227 -125,54 -270,80 -435,80 -178,0 -330,-25 -455,-76 -125,-52 -220,-125 -285,-221 -65,-96 -98,-210 -98,-343 0,-108 21,-204 61,-285 41,-80 96,-150 166,-208 69,-58 146,-109 229,-150 -70,-45 -134,-96 -193,-152 -57,-57 -104,-122 -138,-195 -34,-74 -51,-157 -51,-252 0,-127 35,-233 107,-318 71,-85 164,-149 280,-192 117,-43 242,-65 377,-65zm-372 1788c0,87 31,158 92,215 62,56 153,84 273,84 126,0 219,-27 281,-81 62,-54 93,-126 93,-214 0,-61 -18,-115 -53,-161 -36,-46 -80,-87 -133,-123 -53,-37 -107,-72 -161,-103l-44 -23c-70,32 -131,67 -182,107 -52,39 -92,83 -122,132 -29,50 -44,105 -44,167zm369 -1419c-82,0 -152,21 -205,63 -55,43 -82,103 -82,181 0,55 13,103 40,144 26,40 61,77 106,107 44,31 92,59 144,85 50,-24 97,-50 140,-80 44,-29 79,-65 106,-107 27,-41 41,-91 41,-149 0,-78 -28,-138 -83,-181 -54,-42 -124,-63 -207,-63zm3615 682c0,138 -11,274 -31,410 -20,135 -55,263 -105,383 -50,119 -120,225 -210,317 -90,93 -205,165 -344,218 -139,52 -308,78 -506,78 -47,0 -101,-1 -165,-5 -62,-4 -115,-10 -156,-18l0 -404c44,11 90,20 139,26 49,6 98,8 148,8 199,0 353,-31 460,-95 109,-63 185,-151 229,-263 44,-113 69,-243 76,-391l-20 0c-31,53 -68,99 -111,141 -43,43 -98,76 -164,100 -67,24 -151,37 -253,37 -136,0 -254,-31 -355,-90 -100,-60 -178,-146 -233,-259 -54,-113 -82,-250 -82,-411 0,-174 33,-323 99,-447 65,-124 159,-219 281,-286 122,-66 265,-100 430,-100 122,0 235,21 341,63 105,42 198,106 278,193 80,86 142,195 187,328 44,132 67,287 67,467zm-863 -646c-98,0 -178,34 -240,101 -62,69 -93,176 -93,321 0,116 27,209 80,277 54,68 134,103 243,103 75,0 140,-17 196,-51 55,-34 98,-76 130,-127 31,-51 46,-104 46,-158 0,-56 -8,-112 -23,-166 -15,-56 -38,-105 -69,-151 -30,-45 -67,-81 -113,-108 -45,-28 -97,-41 -157,-41zm2688 164c0,110 -23,206 -68,286 -46,81 -108,147 -185,198 -78,51 -165,88 -262,113l0 9c191,24 337,83 436,177 100,94 149,219 149,376 0,140 -34,264 -101,374 -69,110 -173,197 -314,261 -142,63 -324,94 -546,94 -131,0 -255,-10 -368,-31 -114,-22 -220,-54 -320,-97l0 -429c102,52 209,92 321,118 112,27 216,40 313,40 180,0 306,-31 379,-94 72,-63 108,-152 108,-265 0,-67 -16,-123 -51,-169 -33,-46 -91,-81 -175,-105 -83,-24 -198,-36 -348,-36l-180 0 0 -386 184 0c146,0 258,-14 335,-43 77,-27 128,-65 156,-114 28,-49 42,-104 42,-167 0,-85 -26,-151 -79,-199 -52,-48 -139,-73 -260,-73 -76,0 -146,10 -208,29 -63,19 -119,42 -169,69 -50,26 -94,52 -132,77l-233 -347c93,-67 203,-124 329,-168 125,-45 274,-67 449,-67 245,0 440,50 583,149 144,99 215,239 215,420z"/>
 </g>
</svg>
