<?xml version="1.0" encoding="UTF-8"?>
<!DOCTYPE svg PUBLIC "-//W3C//DTD SVG 1.1//EN" "http://www.w3.org/Graphics/SVG/1.1/DTD/svg11.dtd">
<!-- Creator: CorelDRAW X7 -->
<svg xmlns="http://www.w3.org/2000/svg" xml:space="preserve" width="2.4701mm" height="1.6525mm" version="1.1" style="shape-rendering:geometricPrecision; text-rendering:geometricPrecision; image-rendering:optimizeQuality; fill-rule:evenodd; clip-rule:evenodd"
viewBox="0 0 130 87"
 xmlns:xlink="http://www.w3.org/1999/xlink">
 <defs>
  <style type="text/css">
   <![CDATA[
    .fil0 {fill:#FEFEFE;fill-rule:nonzero}
   ]]>
  </style>
 </defs>
 <g id="Слой_x0020_1">
  <metadata id="CorelCorpID_0Corel-Layer"/>
  <path class="fil0" d="M62 38c0,6 -1,12 -2,17 -1,5 -3,10 -5,14 -2,3 -5,7 -8,10 -4,2 -8,4 -13,6 -5,1 -10,2 -16,2 -2,0 -4,0 -6,0 -3,0 -5,0 -6,-1l0 -18c1,1 3,1 5,1 1,0 3,0 5,0 7,0 12,-1 15,-2 4,-2 6,-5 8,-8 1,-3 2,-7 2,-11l-1 0c-1,2 -2,3 -3,5 -2,1 -4,3 -6,3 -2,1 -5,2 -8,2 -4,0 -9,-1 -12,-4 -3,-2 -6,-5 -8,-9 -2,-4 -3,-9 -3,-15 0,-6 1,-12 4,-16 2,-5 5,-8 10,-10 4,-3 10,-4 16,-4 4,0 8,1 12,2 4,2 7,4 10,7 3,3 5,7 7,12 2,5 3,11 3,17zm-31 -20c-3,0 -5,1 -7,3 -1,2 -2,5 -2,9 0,3 1,5 2,7 2,2 4,3 6,3 2,0 3,0 5,-1 1,-1 2,-2 3,-4 1,-1 1,-3 1,-4 0,-2 0,-3 -1,-5 0,-1 0,-2 -1,-4 -1,-1 -2,-2 -3,-3 -1,0 -2,-1 -3,-1zm97 2c0,4 -1,7 -3,10 -2,3 -4,5 -7,7 -3,2 -6,3 -9,4l0 1c7,0 12,3 16,6 3,3 5,8 5,14 0,4 -1,9 -4,12 -2,4 -6,7 -11,10 -5,2 -12,3 -20,3 -6,0 -10,0 -14,-1 -4,-1 -8,-2 -11,-4l0 -18c3,1 7,3 11,4 4,1 7,1 11,1 5,0 9,-1 11,-2 2,-2 3,-4 3,-7 0,-2 -1,-3 -2,-5 0,-1 -2,-2 -5,-3 -2,-1 -6,-1 -11,-1l-5 0 0 -17 5 0c4,0 8,0 10,-1 3,-1 5,-2 6,-3 1,-2 1,-3 1,-5 0,-2 0,-4 -2,-5 -2,-1 -4,-2 -7,-2 -3,0 -5,1 -7,1 -2,1 -4,2 -6,3 -2,1 -3,1 -4,2l-9 -15c3,-3 7,-5 12,-7 4,-1 10,-2 18,-2 8,0 15,2 20,5 5,4 8,8 8,15z"/>
 </g>
</svg>
