<?xml version="1.0" encoding="UTF-8"?>
<!DOCTYPE svg PUBLIC "-//W3C//DTD SVG 1.1//EN" "http://www.w3.org/Graphics/SVG/1.1/DTD/svg11.dtd">
<!-- Creator: CorelDRAW X7 -->
<svg xmlns="http://www.w3.org/2000/svg" xml:space="preserve" width="2.4678mm" height="1.6525mm" version="1.1" style="shape-rendering:geometricPrecision; text-rendering:geometricPrecision; image-rendering:optimizeQuality; fill-rule:evenodd; clip-rule:evenodd"
viewBox="0 0 341 229"
 xmlns:xlink="http://www.w3.org/1999/xlink">
 <defs>
  <style type="text/css">
   <![CDATA[
    .fil0 {fill:#FEFEFE;fill-rule:nonzero}
   ]]>
  </style>
 </defs>
 <g id="Слой_x0020_1">
  <metadata id="CorelCorpID_0Corel-Layer"/>
  <path class="fil0" d="M130 225l-61 0 0 -110c0,-2 0,-5 0,-11 0,-5 0,-11 1,-18 0,-6 0,-12 0,-17 -2,3 -5,5 -7,8 -2,2 -5,4 -7,6l-25 21 -31 -38 76 -63 54 0 0 222zm131 -225c15,0 27,2 38,6 12,4 20,10 26,18 7,8 10,18 10,30 0,9 -2,17 -5,24 -3,7 -8,12 -14,17 -5,5 -12,10 -19,13 7,4 14,9 20,14 7,6 13,12 18,19 4,7 6,16 6,25 0,12 -2,23 -8,32 -6,10 -15,17 -27,22 -12,6 -27,9 -46,9 -18,0 -34,-3 -46,-8 -12,-5 -20,-13 -26,-22 -6,-9 -8,-20 -8,-32 0,-10 1,-19 5,-26 3,-7 8,-13 14,-18 6,-5 13,-10 21,-14 -6,-4 -12,-9 -17,-14 -5,-5 -9,-11 -12,-18 -3,-7 -5,-14 -5,-23 0,-12 3,-22 10,-30 6,-8 15,-14 26,-18 11,-4 24,-6 39,-6zm-27 165c0,6 3,11 7,15 5,4 11,6 19,6 9,0 16,-2 20,-6 4,-3 6,-8 6,-14 0,-5 -1,-9 -4,-13 -2,-3 -5,-7 -9,-9 -4,-3 -7,-5 -9,-7l-4 -2c-5,2 -9,5 -13,8 -4,3 -7,6 -9,9 -2,4 -4,8 -4,13zm27 -122c-5,0 -10,2 -13,5 -4,2 -6,6 -6,11 0,4 1,7 3,9 1,3 3,6 6,8 3,3 6,5 9,7 3,-2 6,-4 9,-6 2,-2 5,-5 7,-7 2,-3 3,-7 3,-11 0,-5 -2,-9 -6,-11 -3,-3 -8,-5 -12,-5z"/>
 </g>
</svg>
