<?xml version="1.0" encoding="UTF-8"?>
<!DOCTYPE svg PUBLIC "-//W3C//DTD SVG 1.1//EN" "http://www.w3.org/Graphics/SVG/1.1/DTD/svg11.dtd">
<!-- Creator: CorelDRAW X7 -->
<svg xmlns="http://www.w3.org/2000/svg" xml:space="preserve" width="10.1474mm" height="0.8452mm" version="1.1" style="shape-rendering:geometricPrecision; text-rendering:geometricPrecision; image-rendering:optimizeQuality; fill-rule:evenodd; clip-rule:evenodd"
viewBox="0 0 1463 122"
 xmlns:xlink="http://www.w3.org/1999/xlink">
 <defs>
  <style type="text/css">
   <![CDATA[
    .fil0 {fill:#FEFEFE;fill-rule:nonzero}
   ]]>
  </style>
 </defs>
 <g id="Слой_x0020_1">
  <metadata id="CorelCorpID_0Corel-Layer"/>
  <path class="fil0" d="M0 1l32 0c13,0 23,2 28,6 6,4 9,10 9,17 0,4 -1,8 -2,11 -2,2 -4,5 -6,6 -2,2 -4,3 -6,4l0 0c2,1 5,2 7,3 3,2 5,4 6,7 2,3 3,6 3,11 0,6 -2,11 -5,15 -2,4 -6,7 -12,9 -5,2 -11,3 -18,3l-36 0 0 -92zm25 36l7 0c4,0 7,-1 9,-3 2,-2 2,-4 2,-6 0,-3 0,-4 -2,-6 -2,-1 -5,-2 -9,-2l-7 0 0 17zm0 18l0 19 9 0c4,0 7,-1 9,-3 1,-2 2,-4 2,-7 0,-1 0,-3 -1,-4 -1,-2 -2,-3 -4,-4 -1,-1 -4,-1 -7,-1l-8 0zm62 38l0 -92 25 0 0 92 -25 0zm124 -92l0 72 13 0 0 49 -24 0 0 -29 -54 0 0 29 -24 0 0 -49 8 0c3,-5 5,-10 7,-16 3,-5 5,-11 6,-17 2,-6 4,-12 5,-19 1,-6 2,-13 2,-20l61 0zm-25 21l-16 0c0,4 -1,9 -2,13 -1,4 -2,9 -3,13 -1,4 -2,8 -4,13 -1,4 -3,8 -5,12l30 0 0 -51zm105 71l-55 0 0 -92 55 0 0 20 -30 0 0 15 28 0 0 20 -28 0 0 17 30 0 0 20zm102 -46c0,7 -1,14 -3,20 -1,5 -4,10 -8,15 -3,4 -8,7 -14,9 -5,3 -12,4 -20,4 -8,0 -14,-1 -20,-4 -6,-2 -10,-5 -14,-9 -3,-4 -6,-9 -8,-15 -2,-6 -3,-13 -3,-20 0,-9 2,-18 5,-25 3,-7 8,-12 15,-16 6,-4 15,-6 25,-6 11,0 19,2 26,6 6,4 11,9 14,16 3,7 5,16 5,25zm-63 0c0,6 0,11 1,15 2,4 4,7 6,9 3,2 7,3 11,3 5,0 8,-1 11,-3 3,-2 5,-5 6,-9 1,-4 2,-9 2,-15 0,-8 -2,-15 -5,-19 -2,-5 -7,-8 -14,-8 -4,0 -8,1 -11,4 -2,2 -4,5 -6,9 -1,4 -1,9 -1,14zm160 46l-28 0 -28 -46 0 46 -25 0 0 -92 25 0 0 45 27 -45 27 0 -29 44 31 48zm95 -46c0,7 -1,14 -3,20 -1,5 -4,10 -8,15 -3,4 -8,7 -13,9 -6,3 -13,4 -21,4 -7,0 -14,-1 -20,-4 -5,-2 -10,-5 -14,-9 -3,-4 -6,-9 -8,-15 -1,-6 -2,-13 -2,-20 0,-9 1,-18 4,-25 4,-7 8,-12 15,-16 7,-4 15,-6 25,-6 11,0 19,2 26,6 7,4 11,9 14,16 3,7 5,16 5,25zm-63 0c0,6 0,11 2,15 1,4 3,7 6,9 2,2 6,3 10,3 5,0 8,-1 11,-3 3,-2 5,-5 6,-9 1,-4 2,-9 2,-15 0,-8 -2,-15 -4,-19 -3,-5 -8,-8 -15,-8 -4,0 -8,1 -10,4 -3,2 -5,5 -6,9 -2,4 -2,9 -2,14zm158 46l-25 0 0 -71 -18 0c0,3 0,7 -1,11 0,5 -1,9 -2,14 0,4 -1,8 -1,13 -1,4 -2,7 -3,10 -1,6 -2,10 -4,13 -2,4 -5,7 -9,9 -4,2 -8,3 -14,3 -2,0 -4,0 -5,-1 -2,0 -3,0 -5,-1l0 -19c1,1 2,1 3,1 1,0 2,0 3,0 2,0 3,0 4,-1 1,-1 2,-2 3,-5 1,-3 2,-7 3,-12 0,-2 1,-5 1,-9 1,-3 1,-7 2,-12 1,-5 1,-11 2,-16 1,-6 2,-12 2,-19l64 0 0 92zm20 0l0 -92 24 0 0 33 9 0c8,0 15,1 20,3 5,3 9,6 11,10 3,5 4,10 4,15 0,10 -3,17 -10,23 -6,6 -16,8 -27,8l-31 0zm24 -19l7 0c4,0 7,-1 9,-3 2,-2 3,-4 3,-8 0,-2 0,-4 -1,-5 -1,-2 -3,-3 -4,-3 -2,-1 -4,-1 -6,-1l-8 0 0 20zm58 19l0 -92 76 0 0 92 -26 0 0 -71 -25 0 0 71 -25 0zm181 -46c0,7 -1,14 -2,20 -2,5 -5,10 -8,15 -4,4 -8,7 -14,9 -6,3 -13,4 -20,4 -8,0 -15,-1 -20,-4 -6,-2 -11,-5 -14,-9 -4,-4 -7,-9 -8,-15 -2,-6 -3,-13 -3,-20 0,-9 1,-18 5,-25 3,-7 8,-12 14,-16 7,-4 15,-6 26,-6 10,0 19,2 25,6 7,4 12,9 15,16 3,7 4,16 4,25zm-63 0c0,6 1,11 2,15 1,4 3,7 6,9 3,2 6,3 11,3 4,0 8,-1 10,-3 3,-2 5,-5 6,-9 2,-4 2,-9 2,-15 0,-8 -1,-15 -4,-19 -3,-5 -8,-8 -14,-8 -5,0 -8,1 -11,4 -3,2 -5,5 -6,9 -1,4 -2,9 -2,14zm121 -27c-3,0 -6,1 -8,2 -2,1 -4,3 -6,6 -2,2 -3,5 -4,8 -1,4 -1,7 -1,12 0,6 1,10 2,14 2,4 4,7 7,9 3,2 7,3 11,3 4,0 8,0 12,-1 4,-1 8,-3 11,-4l0 21c-4,1 -8,3 -12,4 -4,0 -9,1 -14,1 -10,0 -18,-2 -24,-6 -6,-4 -11,-10 -14,-17 -3,-7 -5,-15 -5,-24 0,-7 1,-14 3,-20 2,-5 5,-10 9,-15 4,-4 8,-7 14,-9 5,-3 12,-4 19,-4 4,0 9,1 14,2 5,1 10,2 14,4l-7 20c-4,-2 -7,-3 -10,-4 -4,-1 -7,-2 -11,-2zm123 73l-28 0 -28 -46 0 46 -25 0 0 -92 25 0 0 45 27 -45 27 0 -29 44 31 48zm95 -46c0,7 -1,14 -3,20 -1,5 -4,10 -8,15 -3,4 -8,7 -13,9 -6,3 -13,4 -21,4 -7,0 -14,-1 -20,-4 -5,-2 -10,-5 -14,-9 -3,-4 -6,-9 -8,-15 -2,-6 -2,-13 -2,-20 0,-9 1,-18 4,-25 3,-7 8,-12 15,-16 7,-4 15,-6 25,-6 11,0 19,2 26,6 6,4 11,9 14,16 3,7 5,16 5,25zm-63 0c0,6 0,11 2,15 1,4 3,7 6,9 2,2 6,3 10,3 5,0 8,-1 11,-3 3,-2 5,-5 6,-9 1,-4 2,-9 2,-15 0,-8 -2,-15 -4,-19 -3,-5 -8,-8 -15,-8 -4,0 -8,1 -10,4 -3,2 -5,5 -6,9 -2,4 -2,9 -2,14zm80 46l0 -92 75 0 0 92 -25 0 0 -71 -26 0 0 71 -24 0zm95 0l0 -92 25 0 0 92 -25 0zm79 -33l-18 33 -28 0 25 -40c-2,-1 -5,-3 -7,-5 -2,-3 -4,-5 -5,-8 -1,-4 -2,-7 -2,-11 0,-9 3,-16 9,-21 7,-4 16,-7 28,-7l31 0 0 92 -25 0 0 -33 -8 0zm8 -40l-5 0c-4,0 -6,1 -8,2 -2,1 -3,2 -4,3 -1,2 -1,3 -1,5 0,4 1,7 4,9 2,1 5,2 9,2l5 0 0 -21z"/>
 </g>
</svg>
