<?xml version="1.0" encoding="UTF-8"?>
<!DOCTYPE svg PUBLIC "-//W3C//DTD SVG 1.1//EN" "http://www.w3.org/Graphics/SVG/1.1/DTD/svg11.dtd">
<!-- Creator: CorelDRAW X7 -->
<svg xmlns="http://www.w3.org/2000/svg" xml:space="preserve" width="2.5902mm" height="2.6002mm" version="1.1" style="shape-rendering:geometricPrecision; text-rendering:geometricPrecision; image-rendering:optimizeQuality; fill-rule:evenodd; clip-rule:evenodd"
viewBox="0 0 94 94"
 xmlns:xlink="http://www.w3.org/1999/xlink">
 <defs>
  <style type="text/css">
   <![CDATA[
    .fil0 {fill:#FEFEFE}
   ]]>
  </style>
 </defs>
 <g id="Слой_x0020_1">
  <metadata id="CorelCorpID_0Corel-Layer"/>
  <g id="_887627312">
   <path class="fil0" d="M67 24c-18,-16 -36,-23 -59,-24 -9,0 -10,8 -5,12 2,2 6,2 8,2 17,0 37,10 50,23 14,16 19,32 20,50 0,8 9,10 12,4 3,-6 -2,-27 -4,-34 -5,-11 -12,-23 -22,-33z"/>
   <path class="fil0" d="M40 49c8,7 13,16 15,25 3,10 0,22 10,20 7,-1 6,-8 5,-11 -1,-13 -5,-26 -15,-37 -8,-9 -15,-14 -25,-18 -6,-3 -20,-6 -25,-4 -7,1 -8,13 3,13 11,0 22,4 32,12z"/>
   <path class="fil0" d="M22 65c7,5 12,14 12,21 0,6 3,9 8,8 3,0 5,-4 5,-6 1,-16 -10,-32 -25,-38 -4,-2 -12,-4 -16,-3 -8,1 -8,11 -1,13 5,1 8,-1 17,5z"/>
  </g>
 </g>
</svg>
