<?xml version="1.0" encoding="UTF-8"?>
<!DOCTYPE svg PUBLIC "-//W3C//DTD SVG 1.1//EN" "http://www.w3.org/Graphics/SVG/1.1/DTD/svg11.dtd">
<!-- Creator: CorelDRAW X7 -->
<svg xmlns="http://www.w3.org/2000/svg" xml:space="preserve" width="3.5756mm" height="1.9899mm" version="1.1" style="shape-rendering:geometricPrecision; text-rendering:geometricPrecision; image-rendering:optimizeQuality; fill-rule:evenodd; clip-rule:evenodd"
viewBox="0 0 127 71"
 xmlns:xlink="http://www.w3.org/1999/xlink">
 <defs>
  <style type="text/css">
   <![CDATA[
    .fil0 {fill:white;fill-rule:nonzero}
   ]]>
  </style>
 </defs>
 <g id="Слой_x0020_1">
  <metadata id="CorelCorpID_0Corel-Layer"/>
  <g id="_846843280">
   <path class="fil0" d="M62 35l-5 6c-1,0 -1,0 -1,0 0,1 0,1 1,1 0,0 0,0 0,0 1,0 1,0 1,0l5 -5 6 5c0,0 0,0 0,0 1,0 1,0 1,0 0,0 0,0 0,-1 0,0 0,0 0,0l-5 -6 5 -5c0,0 0,0 0,-1 0,0 0,0 0,0 0,-1 0,-1 -1,-1 0,0 0,0 0,1l-6 5 -5 -5c0,-1 0,-1 -1,-1 0,0 0,0 0,1 -1,0 -1,0 -1,0 0,1 0,1 1,1l5 5z"/>
   <path class="fil0" d="M119 30l5 5 -5 6 -6 -6 6 -5zm-8 5c0,0 0,0 0,0 0,0 0,1 0,1 0,0 0,0 0,0l7 7c1,1 2,0 2,0l6 -7c0,0 1,0 1,0 0,0 0,0 0,-1 0,0 0,0 0,0 -1,-1 -1,-1 -1,-1l-6 -6c0,0 0,0 0,0l0 0c-1,-1 -1,-1 -1,-1 -1,0 -1,0 -1,1l0 0 0 0 -7 6c0,0 0,1 0,1z"/>
   <path class="fil0" d="M8 30l5 5 -5 6 -6 -6 6 -5zm-8 5c0,0 0,0 0,0 0,0 0,1 0,1 0,0 0,0 0,0l7 7c1,1 2,0 2,0l7 -7c0,0 0,0 0,0 0,0 0,0 0,-1 0,0 0,0 0,0 0,-1 0,-1 0,-1l-7 -6c0,0 0,0 0,0l0 0 0 0c0,-1 -1,-1 -1,-1 0,0 -1,0 -1,1l0 0 0 0 -7 6c0,0 0,1 0,1z"/>
   <path class="fil0" d="M95 35c0,-1 -1,-1 -1,-1l-5 -6c0,0 -1,0 -1,0 0,0 0,0 0,1 -1,0 -1,0 -1,0 0,0 0,1 0,1l6 5 -6 6c0,0 0,0 0,0 0,1 0,1 0,1 1,0 1,0 1,0 0,0 1,0 1,0l5 -5c0,0 1,-1 1,-2z"/>
   <path class="fil0" d="M40 35c0,-1 -1,-1 -1,-1l-6 -6c0,0 0,0 0,0 0,0 -1,0 -1,1 0,0 0,0 0,0 0,0 0,1 0,1l5 5 -5 6c0,0 0,0 0,0 0,1 0,1 0,1 0,0 1,0 1,0 0,0 0,0 0,0l6 -5c0,0 1,-1 1,-2z"/>
   <path class="fil0" d="M117 63l-5 5c0,0 0,0 0,1 0,0 0,0 0,0 0,1 0,1 1,1 0,0 0,0 0,-1l6 -5 5 5c0,1 1,1 1,1 0,0 0,0 1,-1 0,0 0,0 0,0 0,-1 0,-1 0,-1l-6 -5 6 -6c0,0 0,0 0,0 0,-1 0,-1 0,-1 -1,0 -1,0 -1,0 0,0 -1,0 -1,0l-5 5 -6 -5c0,0 0,0 0,0 -1,0 -1,0 -1,0 0,0 0,0 0,1 0,0 0,0 0,0l5 6z"/>
   <path class="fil0" d="M7 63l-6 5c0,0 0,0 0,1 0,0 0,0 0,0 0,1 1,1 1,1 0,0 0,0 1,-1l5 -5 5 5c0,1 1,1 1,1 0,0 0,0 1,-1 0,0 0,0 0,0 0,-1 0,-1 0,-1l-6 -5 6 -6c0,0 0,0 0,0 0,-1 0,-1 0,-1 -1,0 -1,0 -1,0 0,0 -1,0 -1,0l-5 5 -5 -5c-1,0 -1,0 -1,0 0,0 -1,0 -1,0 0,0 0,0 0,1 0,0 0,0 0,0l6 6z"/>
   <path class="fil0" d="M63 57l6 6 -6 5 -5 -5 5 -6zm-7 5c-1,0 -1,0 -1,1 0,0 0,0 1,0 0,0 0,0 0,0l6 7c1,1 2,0 2,0l7 -7c0,0 0,0 0,0 0,0 0,0 0,0 0,-1 0,-1 0,-1 0,0 0,0 0,0l-7 -7c0,0 0,0 0,0l0 0 0 0c0,0 0,0 -1,0 0,0 0,0 0,0l0 0 0 0 -7 7c0,0 0,0 0,0z"/>
   <path class="fil0" d="M87 63c0,0 1,1 1,1l5 5c0,1 1,1 1,1 0,0 0,0 1,-1 0,0 0,0 0,0 0,-1 0,-1 0,-1l-6 -5 6 -6c0,0 0,0 0,0 0,-1 0,-1 0,-1 -1,0 -1,0 -1,0 0,0 -1,0 -1,0l-5 5c0,0 -1,1 -1,2z"/>
   <path class="fil0" d="M32 63c0,0 1,1 1,1l5 5c0,1 0,1 1,1 0,0 0,0 0,-1 0,0 1,0 1,0 0,-1 -1,-1 -1,-1l-5 -5 5 -6c0,0 1,0 1,0 0,-1 -1,-1 -1,-1 0,0 0,0 0,0 -1,0 -1,0 -1,0l-5 5c0,0 -1,1 -1,2z"/>
   <path class="fil0" d="M117 8l-5 5c0,1 0,1 0,1 0,0 0,1 0,1 0,0 0,0 1,0 0,0 0,0 0,0l6 -6 5 6c0,0 1,0 1,0 0,0 0,0 1,0 0,0 0,-1 0,-1 0,0 0,0 0,-1l-6 -5 6 -5c0,-1 0,-1 0,-1 0,0 0,-1 0,-1 -1,0 -1,0 -1,0 0,0 -1,0 -1,0l-5 6 -6 -6c0,0 0,0 0,0 -1,0 -1,0 -1,0 0,0 0,1 0,1 0,0 0,0 0,1l5 5z"/>
   <path class="fil0" d="M7 8l-6 5c0,1 0,1 0,1 0,0 0,1 0,1 0,0 1,0 1,0 0,0 0,0 1,0l5 -6 5 6c0,0 1,0 1,0 0,0 0,0 1,0 0,0 0,-1 0,-1 0,0 0,0 0,-1l-6 -5 6 -5c0,-1 0,-1 0,-1 0,0 0,-1 0,-1 -1,0 -1,0 -1,0 0,0 -1,0 -1,0l-5 6 -5 -6c-1,0 -1,0 -1,0 0,0 -1,0 -1,0 0,0 0,1 0,1 0,0 0,0 0,1l6 5z"/>
   <path class="fil0" d="M63 2l6 6 -6 5 -5 -5 5 -6zm-7 5c-1,1 -1,1 -1,1 0,0 0,0 1,0 0,1 0,1 0,1l6 7c1,0 2,0 2,0l7 -7c0,0 0,0 0,0 0,-1 0,-1 0,-1 0,0 0,-1 0,-1 0,0 0,0 0,0l-7 -7c0,0 0,0 0,0l0 0 0 0c0,0 0,0 -1,0 0,0 0,0 0,0l0 0 0 0 0 0 -7 7c0,0 0,0 0,0z"/>
   <path class="fil0" d="M117 8l-5 5c0,1 0,1 0,1 0,0 0,1 0,1 0,0 0,0 1,0 0,0 0,0 0,0l6 -6 5 6c0,0 1,0 1,0 0,0 0,0 1,0 0,0 0,-1 0,-1 0,0 0,0 0,-1l-6 -5 6 -5c0,-1 0,-1 0,-1 0,0 0,-1 0,-1 -1,0 -1,0 -1,0 0,0 -1,0 -1,0l-5 6 -6 -6c0,0 0,0 0,0 -1,0 -1,0 -1,0 0,0 0,1 0,1 0,0 0,0 0,1l5 5z"/>
   <path class="fil0" d="M7 8l-6 5c0,1 0,1 0,1 0,0 0,1 0,1 0,0 1,0 1,0 0,0 0,0 1,0l5 -6 5 6c0,0 1,0 1,0 0,0 0,0 1,0 0,0 0,-1 0,-1 0,0 0,0 0,-1l-6 -5 6 -5c0,-1 0,-1 0,-1 0,0 0,-1 0,-1 -1,0 -1,0 -1,0 0,0 -1,0 -1,0l-5 6 -5 -6c-1,0 -1,0 -1,0 0,0 -1,0 -1,0 0,0 0,1 0,1 0,0 0,0 0,1l6 5z"/>
   <path class="fil0" d="M63 2l6 6 -6 5 -5 -5 5 -6zm-7 5c-1,1 -1,1 -1,1 0,0 0,0 1,0 0,1 0,1 0,1l6 7c1,0 2,0 2,0l7 -7c0,0 0,0 0,0 0,-1 0,-1 0,-1 0,0 0,-1 0,-1 0,0 0,0 0,0l-7 -7c0,0 0,0 0,0l0 0 0 0c0,0 0,0 -1,0 0,0 0,0 0,0l0 0 0 0 0 0 -7 7c0,0 0,0 0,0z"/>
   <path class="fil0" d="M87 8c0,1 1,1 1,1l5 6c0,0 1,0 1,0 0,0 0,0 1,0 0,0 0,-1 0,-1 0,0 0,0 0,-1l-6 -5 6 -5c0,-1 0,-1 0,-1 0,0 0,-1 0,-1 -1,0 -1,0 -1,0 0,0 -1,0 -1,0l-5 6c0,0 -1,0 -1,1z"/>
   <path class="fil0" d="M32 8c0,1 1,1 1,1l5 6c0,0 0,0 1,0 0,0 0,0 0,0 0,0 1,-1 1,-1 0,0 -1,0 -1,-1l-5 -5 5 -5c0,-1 1,-1 1,-1 0,0 -1,-1 -1,-1 0,0 0,0 0,0 -1,0 -1,0 -1,0l-5 6c0,0 -1,0 -1,1z"/>
  </g>
 </g>
</svg>
